<?xml version="1.0" standalone="no"?>
<!DOCTYPE svg PUBLIC "-//W3C//DTD SVG 20010904//EN"
 "http://www.w3.org/TR/2001/REC-SVG-20010904/DTD/svg10.dtd">
<svg version="1.0" xmlns="http://www.w3.org/2000/svg"
 width="1280.000000pt" height="1280.000000pt" viewBox="0 0 1280.000000 1280.000000"
 preserveAspectRatio="xMidYMid meet">
<metadata>
Created by potrace 1.16, written by Peter Selinger 2001-2019
</metadata>
<g transform="translate(0.000000,1280.000000) scale(0.100000,-0.100000)"
fill="#000000" stroke="none">
<path d="M6309 11083 c-46 -12 -16 -88 46 -117 82 -39 200 0 193 64 -4 31 -49
40 -75 15 -25 -25 -92 -14 -116 19 -10 14 -22 25 -25 25 -4 -1 -14 -3 -23 -6z"/>
<path d="M5920 10942 c-38 -11 -40 -29 -40 -312 0 -256 1 -278 18 -293 25 -23
65 -21 87 3 17 18 18 39 13 295 -4 184 -10 280 -17 289 -14 17 -40 24 -61 18z"/>
<path d="M5437 10928 l-28 -10 3 -279 c3 -252 5 -280 21 -296 15 -15 35 -18
125 -18 135 1 190 19 233 78 26 36 29 48 29 114 0 82 -14 119 -57 153 -46 36
-92 50 -164 50 l-69 0 0 85 c0 78 -2 88 -25 110 -27 28 -28 28 -68 13z m222
-323 c48 -24 57 -110 16 -150 -20 -20 -34 -25 -78 -25 -41 0 -56 4 -61 16 -8
21 -8 159 1 167 12 13 94 7 122 -8z"/>
<path d="M6190 10905 c-7 -9 -19 -55 -26 -103 -23 -149 -54 -445 -49 -462 7
-23 51 -41 82 -34 13 4 32 18 41 33 47 73 226 303 230 293 2 -6 -4 -67 -12
-134 -23 -177 -23 -208 -1 -224 26 -19 59 -17 77 4 15 17 23 66 68 401 l21
154 -22 23 c-43 46 -98 22 -157 -69 -9 -14 -51 -69 -92 -123 -41 -54 -78 -103
-82 -108 -17 -26 -17 12 3 165 l21 163 -22 18 c-27 22 -63 23 -80 3z"/>
<path d="M4985 10865 c-27 -8 -64 -14 -81 -15 -42 0 -76 -37 -69 -76 2 -16 16
-101 30 -189 49 -302 62 -335 129 -335 53 1 205 38 247 62 69 39 99 140 63
210 -17 33 -52 67 -69 68 -5 0 -16 4 -24 9 -12 8 -10 15 12 40 51 61 44 135
-18 190 -57 50 -127 62 -220 36z m139 -111 c22 -21 20 -70 -3 -93 -21 -21
-127 -40 -141 -25 -5 5 -10 33 -12 63 -3 51 -1 55 22 62 47 13 118 10 134 -7z
m59 -242 c21 -19 23 -85 2 -105 -25 -26 -148 -56 -159 -39 -8 14 -27 144 -22
150 8 8 119 20 141 14 11 -2 28 -11 38 -20z"/>
<path d="M4570 10777 c-28 -14 -33 -29 -75 -212 -38 -169 -48 -206 -56 -197
-4 4 -28 70 -53 146 -26 77 -52 146 -58 153 -13 16 -70 17 -86 1 -18 -18 -15
-60 12 -135 13 -37 48 -144 77 -236 59 -186 75 -212 123 -203 17 4 36 12 43
19 10 10 39 133 83 360 6 31 15 57 20 57 8 0 15 -18 65 -185 44 -147 48 -155
93 -155 78 0 76 11 -66 465 -22 70 -49 125 -61 125 -5 0 -15 2 -23 5 -7 3 -24
-1 -38 -8z"/>
<path d="M7062 10717 c-12 -14 -57 -129 -76 -197 -8 -25 -32 -99 -55 -164 -48
-141 -52 -181 -17 -197 45 -21 71 -5 94 58 12 32 24 70 28 86 7 31 12 32 79
11 64 -19 142 -20 188 0 76 31 125 162 95 251 -18 53 -87 104 -188 138 -87 30
-132 34 -148 14z m138 -120 c60 -22 78 -36 90 -71 17 -52 -14 -105 -68 -119
-26 -6 -118 18 -127 33 -5 8 29 142 42 163 6 10 23 9 63 -6z"/>
<path d="M3870 10507 c-68 -34 -129 -70 -134 -79 -12 -20 2 -83 38 -168 43
-101 94 -235 100 -263 8 -33 -7 -63 -33 -72 -26 -8 -33 -45 -15 -73 13 -20 22
-23 50 -19 38 6 83 37 101 70 23 41 15 129 -18 208 -52 126 -99 250 -99 262 0
15 110 68 123 60 5 -3 21 -33 37 -67 15 -33 51 -110 80 -171 28 -60 58 -124
66 -141 21 -45 54 -60 90 -43 16 8 30 22 32 32 4 19 -59 167 -144 337 -28 58
-55 116 -59 130 -11 38 -35 60 -64 59 -14 0 -82 -28 -151 -62z"/>
<path d="M7588 10528 c-14 -12 -177 -335 -223 -445 -16 -38 -16 -45 -3 -65 9
-14 71 -51 144 -87 106 -52 133 -62 154 -54 18 6 26 17 28 39 4 37 -3 43 -106
93 -44 22 -83 44 -86 50 -9 14 45 121 61 121 8 0 45 -16 83 -35 38 -19 78 -35
88 -35 30 0 55 35 48 65 -5 21 -24 35 -91 67 -47 22 -85 44 -85 49 0 18 49
119 58 119 5 0 48 -18 96 -41 97 -45 131 -46 142 -4 3 14 3 32 0 41 -6 16
-222 122 -266 130 -14 3 -32 -1 -42 -8z"/>
<path d="M3460 10292 c-152 -91 -261 -169 -266 -189 -8 -31 1 -51 30 -64 21
-10 31 -7 72 20 26 17 53 31 60 31 8 0 35 -34 61 -76 139 -219 204 -312 222
-317 23 -6 60 11 74 34 13 22 -5 56 -135 255 -57 88 -108 165 -112 171 -4 8
10 23 44 44 52 32 72 68 53 98 -16 25 -54 23 -103 -7z"/>
<path d="M7992 10235 c-56 -89 -80 -126 -172 -270 -38 -60 -70 -119 -70 -130
0 -46 156 -146 263 -169 64 -14 139 30 177 104 49 96 12 189 -107 272 -24 16
-43 33 -43 39 0 16 49 89 60 89 6 0 52 -25 102 -55 51 -31 99 -54 107 -53 25
5 48 55 35 75 -17 28 -253 173 -280 173 -19 0 -34 -15 -72 -75z m16 -269 c35
-18 78 -65 87 -93 8 -28 -21 -80 -50 -90 -43 -15 -66 -8 -123 35 l-32 24 32
57 c33 59 48 81 55 81 2 0 16 -6 31 -14z"/>
<path d="M8630 10080 c-11 -11 -20 -26 -20 -33 0 -24 31 -57 53 -57 54 1 78
64 35 94 -30 21 -44 20 -68 -4z"/>
<path d="M3022 9981 c-56 -22 -100 -58 -136 -109 -23 -34 -28 -52 -29 -104 -1
-43 5 -74 17 -98 27 -52 165 -213 209 -245 45 -32 105 -42 163 -26 120 32 227
189 166 244 -9 9 -26 15 -36 13 -19 -3 -55 -43 -56 -63 0 -22 -51 -72 -86 -83
-49 -16 -83 0 -137 64 -86 102 -127 167 -127 204 0 47 52 99 110 108 42 7 80
36 80 61 0 23 -39 53 -67 52 -16 0 -47 -8 -71 -18z"/>
<path d="M8491 9984 c-11 -8 -45 -47 -75 -87 -30 -40 -100 -126 -155 -192
-135 -162 -136 -156 12 -275 61 -50 122 -93 135 -96 30 -8 52 12 52 46 0 28
-6 34 -135 143 l-29 25 43 56 43 57 26 -17 c15 -10 49 -35 76 -56 54 -43 90
-47 112 -13 19 29 1 60 -71 117 -33 27 -61 54 -63 61 -3 16 65 97 83 97 7 0
35 -18 61 -41 101 -84 155 -94 170 -32 8 30 -6 44 -140 148 -88 68 -116 79
-145 59z"/>
<path d="M8759 9979 c-20 -20 -19 -49 3 -76 23 -29 88 -6 88 30 0 51 -57 80
-91 46z"/>
<path d="M5714 9709 c-3 -6 -17 -8 -30 -5 -25 7 -29 0 -15 -23 7 -11 15 -10
45 8 20 13 36 25 36 27 0 9 -29 3 -36 -7z"/>
<path d="M5815 9701 c35 -24 55 -27 55 -7 0 8 -8 15 -17 15 -10 -1 -29 2 -43
6 -23 6 -23 6 5 -14z"/>
<path d="M8806 9593 c-44 -43 -128 -123 -185 -178 -57 -55 -112 -108 -123
-117 -24 -23 -23 -53 2 -78 34 -34 60 -25 144 55 43 41 82 75 87 75 8 0 110
-104 122 -126 6 -10 -16 -38 -77 -99 -48 -46 -86 -91 -86 -100 0 -23 46 -65
71 -65 13 0 48 27 93 73 39 39 125 121 189 181 65 60 125 122 133 138 14 27
14 32 -1 54 -33 52 -53 45 -155 -48 -35 -32 -68 -58 -75 -58 -14 0 -125 114
-125 129 0 6 34 43 75 83 78 76 87 96 59 136 -28 40 -59 29 -148 -55z"/>
<path d="M2512 9534 c-16 -11 -22 -25 -22 -54 0 -39 8 -57 132 -290 25 -47 63
-118 84 -159 22 -40 49 -80 62 -88 20 -14 25 -14 46 1 38 24 40 50 12 111
l-25 55 68 72 68 73 45 -23 c60 -29 92 -28 117 4 27 34 26 46 -1 70 -25 21
-35 26 -147 74 -82 35 -190 85 -297 136 -79 38 -109 42 -142 18z m318 -239 c0
-6 -18 -28 -39 -49 l-39 -38 -18 28 c-9 16 -34 54 -55 85 -62 91 -60 93 50 37
56 -29 101 -57 101 -63z"/>
<path d="M4294 9516 c-95 -30 -176 -120 -214 -239 -8 -25 -21 -41 -37 -48 -14
-5 -34 -19 -44 -32 l-19 -22 7 45 c7 49 7 55 5 116 -2 38 -30 84 -52 84 -24 0
-67 -62 -83 -119 -22 -79 -21 -136 3 -190 11 -24 20 -49 20 -55 0 -7 -24 -39
-53 -71 l-54 -59 -6 51 c-7 64 -51 153 -75 153 -29 0 -39 -13 -52 -70 -24
-101 -9 -182 45 -236 28 -28 28 -34 7 -116 -14 -55 11 -50 32 5 l16 43 93 -1
c99 0 119 7 180 63 36 34 34 55 -8 75 -44 21 -56 21 -130 2 -32 -9 -62 -14
-67 -13 -12 4 93 148 109 148 8 0 28 -7 45 -16 58 -30 206 -4 261 46 l32 29
-27 28 c-25 24 -35 27 -95 28 -38 0 -84 -4 -103 -9 l-35 -8 50 55 c53 58 59
62 117 72 48 8 130 73 168 133 35 56 49 120 29 133 -17 10 -14 11 -65 -5z m20
-63 c-10 -41 -23 -63 -36 -60 -6 1 -18 -10 -25 -25 -19 -38 -61 -68 -94 -68
-34 0 -33 -3 -13 46 16 39 79 103 102 104 6 0 12 5 12 11 0 6 7 9 15 6 8 -4
17 -2 20 3 13 21 25 9 19 -17z m-364 -114 c12 -45 7 -97 -16 -171 -28 -88 -50
-46 -42 80 5 74 22 132 39 132 5 0 13 -19 19 -41z m127 -235 c-3 -3 -12 -4
-19 -1 -8 3 -5 6 6 6 11 1 17 -2 13 -5z m-366 -60 c24 -50 32 -145 13 -164
-19 -19 -47 14 -53 66 -8 59 -2 144 9 144 5 0 18 -21 31 -46z m423 17 c7 -10
-45 -25 -81 -24 -52 2 -57 3 -47 12 5 6 29 11 54 14 25 2 50 4 57 5 6 1 14 -2
17 -7z m-174 -210 c0 -9 -100 -51 -121 -51 -6 0 -20 5 -32 11 -20 11 -18 13
24 30 47 19 129 25 129 10z"/>
<path d="M7135 9521 c-13 -22 6 -86 42 -138 41 -61 104 -106 177 -127 48 -14
124 -74 111 -88 -3 -3 -25 -2 -49 3 -50 9 -98 3 -143 -18 -41 -19 -42 -44 -4
-75 44 -38 109 -51 212 -46 l90 6 26 -39 c24 -37 53 -52 53 -28 0 6 -10 29
-22 50 l-22 40 29 84 29 84 -17 67 c-29 108 -69 146 -111 105 -17 -18 -22 -37
-26 -117 l-5 -95 -37 38 c-20 21 -53 72 -72 113 -34 73 -66 111 -135 159 -39
27 -114 40 -126 22z m95 -64 c22 4 35 -2 63 -28 39 -37 80 -107 71 -121 -15
-25 -102 24 -125 71 -8 14 -24 36 -36 48 -13 12 -23 28 -23 35 0 9 3 9 11 1 7
-7 24 -9 39 -6z m374 -141 c9 -30 16 -64 16 -75 0 -29 -23 -101 -32 -101 -12
0 -38 101 -38 149 0 42 1 44 15 25 14 -17 14 -15 8 25 -9 61 11 46 31 -23z
m-106 -197 c32 -20 28 -27 -24 -35 -31 -4 -67 -1 -112 11 -97 24 -102 27 -67
36 46 12 177 4 203 -12z"/>
<path d="M7581 9254 c0 -11 3 -14 6 -6 3 7 2 16 -1 19 -3 4 -6 -2 -5 -13z"/>
<path d="M4865 9320 c-3 -5 -1 -10 4 -10 6 0 11 5 11 10 0 6 -2 10 -4 10 -3 0
-8 -4 -11 -10z"/>
<path d="M2227 9192 c-36 -39 -23 -67 61 -131 93 -72 122 -97 122 -110 0 -22
-68 -105 -94 -114 -23 -8 -36 -3 -89 34 -34 24 -64 46 -67 49 -34 42 -101 52
-124 18 -27 -38 -18 -55 57 -118 115 -96 164 -113 250 -89 39 11 104 70 128
117 27 55 28 55 93 3 63 -49 98 -71 113 -71 21 0 53 43 53 69 0 25 -16 41
-117 117 -65 49 -162 124 -217 167 -104 82 -138 93 -169 59z"/>
<path d="M9183 9136 c-73 -34 -238 -160 -263 -201 -76 -122 16 -316 161 -340
71 -12 115 3 226 78 147 100 193 160 193 250 -1 115 -121 237 -233 237 -17 0
-55 -11 -84 -24z m140 -102 c36 -17 67 -67 67 -109 0 -35 -37 -73 -147 -147
-76 -53 -107 -68 -135 -68 -42 0 -80 27 -98 69 -25 62 7 109 132 193 132 88
128 87 181 62z"/>
<path d="M7957 9116 c-15 -12 -16 -14 -2 -20 8 -3 21 -3 29 0 8 3 17 0 22 -7
4 -8 3 -10 -4 -5 -7 4 -12 1 -12 -8 0 -10 -6 -13 -15 -10 -8 4 -15 1 -15 -4 0
-16 18 -24 39 -17 23 7 34 54 15 62 -8 3 -11 9 -8 14 8 14 -29 10 -49 -5z"/>
<path d="M3295 8860 c-3 -5 -2 -10 4 -10 5 0 13 5 16 10 3 6 2 10 -4 10 -5 0
-13 -4 -16 -10z"/>
<path d="M8070 8864 c-22 -5 -61 -16 -224 -66 -58 -18 -135 -14 -190 10 -69
31 -103 6 -97 -72 l2 -29 -36 31 c-30 27 -39 30 -58 21 -27 -12 -71 -81 -87
-136 -16 -52 2 -144 37 -198 20 -30 26 -51 25 -84 -1 -25 -5 -48 -9 -52 -5 -4
-32 0 -62 10 -50 16 -56 22 -76 67 -23 52 -69 94 -132 121 -57 23 -194 13
-250 -18 l-42 -24 -23 22 c-65 59 -185 93 -280 79 -55 -8 -136 -68 -164 -121
-19 -38 -23 -40 -88 -51 -114 -19 -142 -32 -193 -91 -49 -58 -66 -120 -44
-161 9 -17 7 -26 -15 -51 -15 -18 -35 -31 -49 -31 -27 0 -74 -50 -95 -99 -11
-27 -11 -49 -3 -110 l11 -76 -38 -41 c-44 -48 -58 -97 -41 -145 6 -18 11 -35
11 -38 0 -3 -24 -7 -53 -8 -66 -3 -261 -39 -352 -65 -87 -25 -130 -52 -225
-144 -65 -63 -79 -72 -103 -67 -16 3 -40 21 -55 41 -75 98 -152 142 -247 142
-89 0 -159 -24 -211 -72 -50 -46 -55 -65 -19 -73 14 -3 37 -7 51 -11 l27 -5
-32 -23 c-67 -50 -105 -121 -103 -195 2 -75 14 -83 56 -38 50 55 59 50 51 -31
-8 -77 6 -124 49 -167 45 -45 59 -34 85 62 18 67 83 140 154 173 61 29 77 30
77 5 0 -7 9 -17 20 -20 24 -8 25 -27 5 -59 -15 -23 -23 -126 -15 -206 4 -42
62 -185 86 -212 15 -16 16 -24 6 -52 -24 -65 -9 -128 42 -184 44 -49 131 -72
189 -51 33 12 35 10 109 -47 41 -32 90 -68 109 -79 l34 -19 -35 -4 c-19 -2
-82 5 -140 16 -220 43 -231 44 -246 31 -12 -10 -27 -7 -77 16 -34 15 -87 39
-117 53 -104 46 -215 104 -261 135 -41 28 -49 40 -67 97 -12 36 -24 85 -28
110 -8 56 -19 70 -55 70 -34 0 -59 -32 -59 -77 0 -20 -5 -33 -12 -33 -7 0 -42
29 -78 65 -72 73 -111 85 -131 41 -10 -20 -8 -30 10 -55 25 -35 24 -37 -15
-16 -74 38 -140 -9 -84 -60 25 -23 25 -35 1 -35 -73 0 -64 -65 14 -105 17 -8
23 -15 15 -15 -8 0 -28 -11 -45 -24 l-30 -25 22 -22 c16 -16 40 -25 89 -30 39
-5 84 -19 110 -33 24 -14 70 -32 101 -41 33 -10 69 -28 84 -43 36 -38 176
-155 202 -169 12 -6 61 -34 108 -62 47 -27 98 -55 115 -61 54 -20 75 -34 69
-48 -7 -18 21 -69 48 -86 12 -8 58 -25 102 -36 106 -29 113 -36 75 -81 -47
-58 -51 -164 -14 -356 2 -12 15 -34 28 -49 20 -24 32 -28 90 -32 78 -5 98 6
89 49 -4 22 -2 29 10 29 19 0 30 27 18 48 -6 11 -3 24 11 43 18 23 19 32 9 61
-6 19 -9 43 -5 52 7 19 -48 131 -78 157 -10 9 -18 23 -18 31 0 22 -25 40 -62
44 -18 2 -37 9 -42 14 -6 6 -18 10 -28 10 -23 0 -139 39 -156 53 -10 8 -8 14
7 28 11 11 23 36 26 56 4 21 13 73 21 117 8 43 14 102 14 132 0 61 3 63 82 44
115 -27 193 -40 269 -46 l84 -7 20 -41 c51 -105 238 -163 345 -107 69 36 93
72 96 145 2 59 3 61 36 73 18 7 45 12 60 12 15 1 88 17 162 36 75 19 142 35
150 35 21 0 62 -79 69 -133 4 -26 15 -64 26 -85 22 -44 36 -121 26 -151 -5
-16 -13 -20 -30 -17 -13 3 -25 1 -27 -2 -2 -4 -33 -21 -70 -39 -85 -41 -102
-65 -89 -124 11 -49 7 -59 -17 -41 -9 7 -28 17 -42 23 -14 6 -52 24 -85 39
-33 16 -70 31 -82 35 -29 8 -63 -11 -63 -34 0 -37 32 -107 63 -140 31 -33 31
-34 7 -27 -53 15 -179 45 -253 62 -66 15 -83 15 -117 4 -40 -13 -44 -19 -41
-52 2 -13 -5 -18 -24 -18 -36 0 -78 -44 -69 -73 3 -12 13 -29 21 -39 11 -13
12 -20 2 -35 -16 -27 11 -78 57 -105 28 -16 34 -26 34 -53 0 -27 8 -39 38 -63
50 -40 61 -45 198 -93 l119 -42 201 -3 201 -2 66 -31 c70 -33 175 -60 348 -87
157 -25 654 -24 804 1 166 27 149 34 158 -70 4 -49 8 -139 10 -200 2 -106 3
-110 24 -109 12 0 24 -5 27 -13 4 -9 -5 -13 -30 -13 -43 0 -94 -45 -94 -83 0
-34 34 -74 69 -82 29 -6 29 -7 24 -59 -5 -49 -3 -54 22 -74 15 -12 36 -22 47
-22 28 0 76 27 88 50 16 31 27 24 34 -21 4 -22 17 -67 30 -99 13 -33 27 -74
31 -92 l7 -32 -23 17 c-106 77 -129 88 -181 94 -72 7 -84 -6 -62 -72 13 -35
28 -55 60 -78 24 -17 44 -39 44 -49 0 -10 6 -19 13 -19 50 -5 94 -3 103 3 6 4
19 1 30 -8 18 -15 18 -15 -8 -11 -19 3 -28 0 -28 -9 0 -12 -16 -18 -40 -16 -3
0 -6 -11 -5 -26 0 -22 5 -28 28 -30 15 -2 27 -9 27 -17 0 -9 6 -12 17 -8 13 5
15 2 11 -15 -4 -12 -2 -25 3 -28 5 -3 9 -10 9 -15 0 -6 -12 -1 -26 10 -37 29
-103 28 -135 -1 -14 -13 -32 -34 -42 -47 -20 -30 -27 -25 -34 28 -9 63 -95
161 -142 161 -37 0 -60 -21 -91 -85 -22 -45 -23 -54 -14 -136 l9 -89 -46 6
c-56 8 -87 -7 -101 -47 -11 -32 -25 -36 -53 -15 -16 12 -19 31 -23 148 l-4
135 32 6 c17 4 44 15 58 26 15 10 38 21 52 22 17 3 36 21 58 54 60 88 75 133
76 215 1 87 -25 150 -94 234 -36 43 -40 54 -40 105 -1 104 -76 211 -163 230
-38 9 -94 -6 -136 -36 -39 -29 -84 -126 -89 -193 -4 -48 -8 -60 -27 -68 -13
-6 -40 -38 -61 -73 l-38 -61 -28 33 c-15 18 -36 52 -47 75 -11 23 -25 45 -31
49 -6 4 -31 37 -54 74 -24 36 -50 72 -59 80 -13 10 -65 14 -224 15 l-208 1 2
69 c2 60 6 73 27 90 21 19 23 26 17 71 -5 45 -9 50 -36 56 -56 12 -270 10
-283 -3 -18 -18 -15 -108 4 -123 11 -8 17 -29 18 -68 2 -77 -6 -97 -42 -97
-25 0 -57 27 -191 160 -166 164 -194 183 -251 165 -11 -4 -86 -72 -164 -151
-79 -79 -159 -150 -177 -158 -27 -11 -108 -14 -383 -15 -393 -1 -361 5 -420
-82 -54 -80 -108 -149 -116 -149 -4 0 -11 11 -14 25 -3 13 -24 43 -46 66 -34
36 -42 53 -51 108 -17 94 -34 138 -78 196 -31 41 -49 54 -91 68 -29 9 -61 17
-71 17 -34 0 -132 -39 -156 -62 -33 -30 -78 -130 -93 -201 -10 -48 -14 -56
-26 -46 -11 9 -14 8 -14 -4 0 -9 -5 -19 -12 -23 -7 -4 -8 -3 -4 4 4 7 3 12 -3
12 -5 0 -13 -9 -16 -20 -3 -11 -10 -20 -15 -20 -5 0 -7 -7 -4 -15 4 -9 0 -15
-8 -15 -19 0 -57 -121 -67 -213 -9 -79 0 -113 42 -163 13 -16 27 -39 31 -51
12 -36 125 -122 186 -139 109 -32 99 -11 93 -191 -2 -87 -6 -164 -8 -170 -3
-7 -18 -13 -34 -13 -19 0 -34 -7 -40 -18 -5 -10 -27 -24 -48 -31 -21 -7 -44
-15 -51 -17 -7 -3 -2 15 12 43 36 72 48 144 33 190 -20 63 -74 58 -144 -15
l-45 -46 6 69 c4 39 2 104 -3 145 -9 67 -13 78 -42 103 -18 15 -45 27 -59 27
-22 0 -30 -8 -48 -47 -22 -51 -35 -130 -34 -203 l1 -45 -17 25 c-35 50 -68 78
-120 98 -29 12 -59 19 -67 16 -8 -4 -15 -1 -15 6 0 7 -11 0 -25 -16 l-25 -29
0 36 c0 50 14 59 94 59 l71 0 54 66 53 65 -22 24 c-33 36 -53 38 -104 15 -26
-11 -60 -23 -77 -27 -29 -5 -31 -4 -24 16 3 12 17 40 29 62 20 34 25 37 35 25
17 -20 76 -39 99 -32 28 9 86 66 67 66 -9 0 -13 4 -10 10 3 6 17 10 31 10 76
0 106 59 64 128 -17 28 -19 37 -8 49 7 9 13 46 14 83 l2 68 -50 -4 c-27 -1
-58 -6 -68 -9 -15 -5 -20 -2 -20 12 0 28 -57 83 -78 76 -15 -6 -15 -5 -3 10 8
10 11 21 7 24 -4 4 -11 1 -16 -7 -7 -11 -12 -9 -28 11 -12 13 -24 20 -29 15
-4 -5 -3 -11 4 -13 7 -2 9 -11 6 -19 -3 -9 1 -14 13 -14 17 0 16 -2 -4 -18
-13 -10 -24 -25 -26 -32 -13 -66 -17 -70 -62 -70 -46 0 -84 -27 -84 -60 0 -25
22 -84 34 -92 7 -5 7 -17 -2 -41 -21 -59 -10 -90 39 -110 11 -4 10 -6 -2 -6
-19 -1 -59 32 -59 48 0 7 -5 9 -10 6 -5 -3 -10 -2 -10 4 0 5 -8 8 -17 7 -27
-4 -46 -53 -49 -125 -3 -61 -14 -100 -14 -50 0 13 -8 49 -16 79 -11 35 -19
115 -23 220 -6 143 -10 171 -29 207 -23 45 -66 93 -98 111 -30 17 -13 22 36
11 25 -6 95 -9 155 -7 100 4 114 6 149 31 25 18 52 27 77 27 21 0 44 6 51 13
7 8 28 17 46 20 19 4 46 15 60 25 15 10 46 24 70 31 43 12 132 68 132 83 0 4
-9 8 -19 8 -11 0 -23 5 -26 10 -3 6 5 10 19 10 13 0 32 7 40 16 9 8 16 14 17
12 0 -2 2 -19 4 -38 4 -33 4 -34 -10 -16 -14 19 -15 19 -15 -7 0 -19 4 -25 14
-21 17 6 22 -9 31 -88 3 -32 10 -60 15 -63 4 -2 11 -25 14 -50 16 -101 24 -46
20 122 -2 98 -1 191 4 208 6 21 22 37 55 55 137 75 217 138 217 172 0 26 64
54 140 62 78 9 210 46 271 76 46 23 89 58 89 72 0 11 -37 10 -45 -1 -13 -23
-127 -64 -211 -76 -50 -8 -128 -24 -173 -35 -46 -12 -86 -18 -90 -13 -12 13
-61 177 -61 203 0 39 255 290 295 290 7 0 24 9 39 21 31 25 31 23 6 -35 -12
-28 -29 -51 -45 -58 -14 -6 -25 -19 -25 -28 0 -25 72 -34 155 -19 54 9 75 19
111 50 25 21 55 44 67 50 12 6 34 23 49 36 14 14 31 24 37 22 17 -6 -42 -109
-72 -127 -15 -9 -27 -20 -27 -24 0 -4 -21 -19 -48 -32 -26 -13 -58 -34 -72
-46 l-25 -21 35 6 c49 10 110 11 110 3 0 -4 -27 -23 -61 -43 -39 -24 -57 -41
-51 -47 23 -23 202 106 202 145 0 16 -3 16 -29 -4 -50 -37 -55 -12 -9 41 24
27 48 49 53 50 12 0 45 56 45 77 0 8 -21 36 -47 61 -39 37 -58 48 -98 55 -128
21 -123 22 -154 -12 -16 -17 -35 -31 -42 -31 -7 0 -43 -16 -80 -35 -38 -19
-72 -35 -76 -35 -12 0 -168 186 -193 230 -11 19 -27 49 -35 66 -8 17 -20 34
-27 37 -8 2 -22 22 -33 43 -76 149 -252 363 -359 436 -53 36 -87 71 -107 110
-10 21 -19 40 -19 43 0 4 33 4 74 0 62 -6 85 -4 139 14 36 12 71 29 77 37 7 8
19 14 26 14 18 0 139 126 164 170 70 127 93 186 98 260 5 72 7 76 44 110 29
26 43 49 53 90 21 77 19 109 -10 166 -29 56 -31 76 -11 107 8 12 18 67 23 122
10 112 -3 231 -34 300 -31 70 -101 172 -145 210 -92 80 -248 135 -384 135 -28
0 -69 8 -90 17 -31 14 -71 17 -199 17 -173 1 -199 -5 -327 -71 -137 -70 -275
-215 -334 -349 -56 -131 -66 -169 -71 -284 -5 -112 8 -272 25 -294 10 -13 35
-97 30 -100 -2 -2 -18 -9 -36 -16 -19 -7 -40 -24 -49 -37 -8 -12 -20 -23 -27
-23 -30 -1 -85 -130 -93 -218 -11 -119 72 -267 187 -334 80 -46 167 -57 264
-32 42 10 30 -14 -26 -51 -25 -16 -64 -47 -87 -67 -22 -21 -45 -38 -50 -38
-13 0 -133 -118 -162 -160 -70 -99 -105 -180 -140 -330 -18 -73 -20 -105 -15
-230 9 -213 11 -227 34 -320 42 -166 36 -355 -18 -574 -17 -65 -30 -127 -30
-138 0 -17 26 -66 41 -78 4 -3 9 -14 11 -25 2 -11 10 -19 17 -17 7 1 10 -2 6
-8 -10 -16 4 -49 27 -61 18 -10 19 -8 13 13 -7 20 -6 21 9 9 14 -12 16 -10 16
18 0 17 5 31 10 31 6 0 10 7 10 15 0 11 5 12 25 5 22 -8 25 -7 25 11 0 12 5
19 13 16 6 -2 12 -13 11 -25 -1 -30 41 -50 68 -33 17 11 23 10 42 -6 31 -26
63 -43 84 -43 10 0 27 -6 37 -14 10 -7 26 -11 35 -9 10 3 20 -2 23 -11 4 -9 3
-16 -2 -16 -5 0 -14 -13 -21 -30 l-12 -29 -19 22 c-10 12 -18 17 -19 10 0 -6
-9 -14 -19 -18 -11 -3 -22 -12 -25 -20 -7 -19 3 -47 15 -39 5 3 14 -6 21 -20
6 -14 15 -26 20 -26 4 0 8 -8 8 -17 0 -10 5 -25 10 -33 7 -10 8 6 5 50 l-5 65
13 -66 c7 -37 18 -73 25 -82 7 -8 10 -21 6 -30 -3 -8 -1 -18 5 -22 7 -4 8 1 4
12 -6 16 -4 16 16 -2 12 -11 18 -21 12 -23 -23 -8 -10 -22 14 -16 16 4 25 2
25 -6 0 -6 4 -9 9 -6 15 10 29 -17 35 -69 7 -49 6 -49 -8 -23 -20 34 -72 65
-122 74 -36 5 -42 3 -57 -20 -9 -14 -17 -32 -17 -40 0 -7 -7 -16 -15 -20 -8
-3 -15 -11 -14 -18 0 -10 2 -10 6 0 7 17 23 15 23 -3 0 -8 4 -15 10 -15 5 0 7
-6 5 -12 -6 -17 21 -52 34 -44 5 4 13 -3 16 -15 4 -11 21 -29 38 -40 23 -15
26 -19 10 -14 -14 4 -23 2 -23 -4 0 -6 7 -11 16 -11 8 0 13 -4 10 -8 -2 -4 0
-14 6 -22 8 -12 9 -11 4 3 -5 15 -2 17 13 12 11 -3 22 -1 26 5 3 5 12 10 19
10 9 0 11 -16 8 -61 -4 -56 -2 -64 19 -80 13 -10 32 -19 41 -19 9 0 26 -12 37
-26 18 -23 23 -25 37 -13 42 35 84 4 67 -49 -5 -15 -8 -34 -7 -42 1 -8 2 -20
3 -26 1 -16 91 -88 99 -80 3 4 0 12 -8 17 -13 9 -13 10 0 6 8 -2 15 -11 15
-20 0 -21 40 -62 89 -91 23 -13 61 -43 86 -66 56 -53 109 -78 122 -58 6 9 8 8
6 -7 -2 -14 3 -21 18 -23 15 -2 20 -9 18 -20 -4 -12 7 -22 41 -35 56 -23 94
-13 140 37 33 37 85 53 130 42 36 -9 32 -45 -8 -84 -38 -37 -47 -39 -47 -12 0
30 -55 31 -80 0 -8 -9 -21 -20 -29 -22 -11 -3 -7 -12 16 -36 31 -33 107 -67
125 -56 6 4 13 2 17 -3 15 -21 64 -52 74 -46 6 3 7 1 3 -6 -5 -7 9 -19 41 -32
26 -11 66 -28 88 -38 84 -38 118 -52 198 -81 45 -17 116 -44 157 -60 119 -45
146 -52 167 -41 10 5 27 13 38 17 19 6 18 7 -5 13 -18 5 -30 21 -45 61 -16 43
-28 59 -55 72 -19 9 -44 17 -55 18 -15 0 -26 15 -43 59 -30 77 -52 96 -108 95
-34 -1 -51 -7 -73 -28 l-28 -27 -31 30 c-33 33 -47 36 -103 21 -34 -9 -39 -8
-72 24 -32 30 -34 35 -19 42 9 4 697 9 1529 10 832 1 1517 5 1523 9 7 4 0 -10
-13 -31 -14 -22 -29 -52 -33 -67 -6 -27 -9 -28 -45 -22 -63 11 -109 -27 -121
-100 -2 -14 -10 -19 -24 -17 -62 8 -157 -127 -124 -178 10 -16 28 -11 265 75
55 20 116 42 135 48 19 6 37 14 40 17 3 3 24 14 47 25 28 13 37 23 30 28 -8 6
-5 7 6 3 24 -8 142 42 213 90 18 12 49 28 70 35 22 7 46 20 54 29 8 9 23 19
33 23 25 9 22 17 -28 76 -70 82 -86 173 -31 183 30 6 75 -12 100 -41 22 -24
56 -28 56 -6 0 8 -10 38 -22 67 -16 40 -22 75 -22 141 -1 78 1 91 20 106 11 9
19 22 16 29 -5 17 23 26 46 13 37 -19 112 -206 112 -278 0 -41 31 -25 53 29
19 45 86 118 109 118 10 0 25 -14 33 -30 15 -28 15 -34 0 -62 -21 -44 -9 -49
25 -11 21 24 28 40 25 62 -2 18 2 34 11 41 14 12 18 3 17 -37 -1 -7 3 -13 8
-13 13 0 49 62 43 72 -3 4 0 8 5 8 6 0 11 7 11 15 0 8 9 20 20 27 11 7 20 21
20 30 0 23 16 23 29 1 9 -16 14 -13 48 23 38 40 41 50 34 112 -1 8 -11 11 -28
9 -16 -3 -27 -9 -26 -15 2 -7 -4 -9 -14 -5 -9 4 -21 -1 -29 -12 -8 -10 -14
-14 -14 -8 0 7 5 15 11 19 8 4 7 9 -2 16 -9 5 -4 6 14 2 17 -4 27 -2 27 5 0 6
-4 11 -10 11 -5 0 -10 4 -10 10 0 5 6 7 14 4 9 -4 14 2 14 18 1 28 34 154 44
163 4 4 2 19 -3 33 -7 17 -6 27 1 32 6 4 0 15 -16 29 l-25 22 -50 -53 c-28
-29 -63 -74 -78 -100 l-27 -47 -13 62 c-7 34 -20 71 -29 81 -14 15 -14 18 -2
14 20 -7 65 17 84 44 20 28 20 55 1 91 -13 25 -12 30 10 64 37 53 34 105 -6
134 -25 18 -40 21 -82 16 -50 -5 -52 -4 -67 27 -23 47 -58 55 -119 24 -57 -28
-67 -17 -25 26 24 23 25 26 8 27 -11 1 -22 1 -26 0 -5 0 -8 5 -8 13 0 11 13
14 58 12 39 -2 69 3 95 16 26 13 43 16 55 9 14 -8 13 -10 -11 -16 -15 -4 -27
-13 -27 -21 0 -16 4 -17 28 -5 9 5 31 15 47 22 48 22 95 53 95 64 0 10 56 39
63 33 12 -11 55 63 49 85 -1 4 5 10 13 12 8 3 22 7 31 10 8 3 12 10 9 15 -5 8
-11 8 -19 1 -7 -6 -16 -8 -19 -4 -13 12 -7 23 13 23 13 0 20 7 20 19 0 14 5
18 20 14 11 -3 20 -9 20 -14 0 -20 21 -7 62 37 24 25 56 58 72 73 64 57 83 78
109 117 15 22 27 46 27 53 0 7 20 36 45 63 43 48 57 78 35 78 -5 0 -10 5 -10
11 0 6 6 9 13 6 21 -8 47 13 62 51 9 20 23 43 32 49 19 15 36 113 19 113 -6 0
0 7 13 16 18 13 22 23 17 45 -3 16 -2 29 3 29 11 0 32 56 24 64 -4 3 1 6 10 6
13 0 16 8 15 32 -3 27 1 34 18 36 16 2 20 9 16 31 -2 16 1 32 7 35 8 5 8 13 1
26 -12 23 -4 64 16 81 19 16 18 36 -3 43 -10 4 -29 16 -43 27 l-25 21 30 -7
c16 -4 32 -11 36 -16 3 -5 13 -1 23 10 20 22 19 88 -1 83 -7 -1 -13 7 -13 19
0 11 5 17 10 14 6 -3 10 -2 10 3 0 6 -7 12 -15 16 -20 7 -19 24 1 28 13 2 17
18 20 68 2 36 7 79 12 95 l9 30 12 -30 c7 -16 18 -66 24 -110 6 -44 14 -82 19
-85 4 -3 3 -28 -1 -55 l-8 -50 -8 64 c-5 38 -11 58 -15 50 -10 -18 0 -149 11
-149 5 0 9 6 9 12 0 7 6 4 14 -7 21 -32 26 -128 26 -528 0 -317 3 -377 14
-377 36 0 41 63 40 465 0 410 -10 539 -55 735 -21 94 -63 219 -90 265 -9 17
-33 59 -53 95 -21 36 -50 79 -65 95 -15 17 -39 44 -52 62 -33 44 -226 211
-270 233 -32 17 -37 25 -47 77 -37 200 -50 356 -32 378 7 8 26 15 42 15 22 0
40 10 65 38 84 90 105 190 59 288 -23 49 -23 53 -9 125 31 159 11 373 -44 467
-27 48 -97 98 -149 108 -27 5 -37 15 -59 60 -30 62 -86 114 -165 151 -49 24
-68 27 -175 29 -66 1 -131 0 -145 -2z m279 -75 c22 -11 45 -27 52 -35 6 -8 16
-14 21 -14 5 0 23 -14 41 -31 36 -35 29 -33 -45 16 -28 19 -54 32 -58 30 -4
-2 -31 2 -61 10 -100 27 -217 15 -349 -36 -37 -14 -88 -22 -162 -26 -85 -5
-108 -9 -108 -21 0 -8 6 -12 14 -9 8 3 27 2 43 -3 l28 -8 -31 -1 c-72 -2 -95
9 -116 56 -22 50 -19 60 11 44 43 -24 171 -24 262 -2 48 12 94 21 103 21 9 0
33 9 54 21 33 19 48 20 149 15 86 -5 122 -11 152 -27z m-859 -154 c-10 -31 -9
-41 10 -77 l21 -41 -25 17 c-26 16 -26 16 -26 -10 l0 -26 -23 29 c-27 32 -40
82 -27 103 10 16 12 15 31 -22 l14 -27 1 42 c0 23 7 54 15 67 l14 25 3 -23 c2
-12 -2 -38 -8 -57z m-790 -138 c27 -7 45 -18 45 -27 0 -18 -70 -34 -94 -21
-10 6 -23 6 -32 0 -7 -5 -26 -9 -40 -9 -29 0 -102 -57 -95 -75 2 -6 -9 -26
-24 -43 -23 -27 -35 -32 -72 -32 -31 0 -63 -9 -99 -29 -54 -28 -62 -38 -95
-119 -17 -41 -17 -43 3 -65 11 -12 23 -37 25 -54 4 -27 1 -33 -14 -33 -11 0
-18 7 -18 19 0 39 -38 32 -84 -14 -14 -14 -33 -25 -43 -25 -31 -1 -71 -65 -68
-107 2 -20 9 -40 16 -44 26 -16 -26 -136 -91 -208 l-30 -34 0 32 c0 23 11 43
41 76 44 48 46 57 34 151 -8 57 8 121 34 141 9 7 35 21 58 33 55 26 67 50 67
140 1 71 2 75 29 88 15 7 27 19 27 27 0 19 32 35 67 35 16 0 38 7 49 15 10 8
35 15 55 15 39 0 65 22 94 79 9 18 25 36 36 38 10 3 21 14 24 24 4 10 16 21
28 24 12 2 31 6 42 8 36 8 79 6 125 -6z m-3185 -48 c28 -5 90 -14 139 -19 224
-24 372 -120 461 -298 22 -45 60 -200 51 -209 -7 -7 -23 27 -31 67 -14 66 -64
151 -135 229 -32 35 -122 93 -207 133 -77 37 -98 42 -170 45 -45 2 -106 9
-135 17 -86 22 -277 -2 -360 -45 -13 -6 -44 -31 -70 -55 -28 -26 -57 -44 -71
-44 -39 0 -178 -153 -232 -257 -11 -21 -23 -40 -26 -43 -3 -3 -14 -26 -24 -52
-21 -55 -30 -62 -20 -15 10 44 45 125 72 166 13 19 23 45 23 60 0 19 21 46 84
106 200 191 267 220 521 223 44 0 103 -4 130 -9z m3679 -40 c31 -19 56 -39 56
-46 0 -19 -9 -16 -46 12 -18 14 -39 25 -47 25 -8 0 -29 7 -46 16 -27 14 -37
14 -57 4 -17 -10 -27 -10 -36 -2 -9 7 -19 7 -28 2 -21 -14 -42 -12 -38 3 6 16
61 26 130 22 42 -2 70 -11 112 -36z m1154 -86 c10 -78 17 -96 68 -180 l57 -94
-6 -142 c-8 -194 -35 -284 -111 -364 -22 -24 -48 -43 -57 -43 -9 0 -36 16 -60
35 -24 19 -48 35 -52 35 -4 0 -20 9 -36 21 -24 18 -43 21 -139 22 -62 0 -112
-3 -111 -8 0 -4 -5 -12 -13 -16 -57 -37 -109 45 -78 125 5 14 12 66 15 117 6
74 4 90 -7 87 -7 -3 -14 -18 -16 -34 -2 -16 -15 -72 -29 -124 -15 -59 -23
-110 -20 -136 4 -38 2 -41 -34 -62 -21 -12 -46 -35 -56 -52 -33 -57 -60 -33
-74 67 -6 37 -16 111 -24 163 -8 52 -17 125 -21 161 l-6 65 83 19 c100 22 114
31 100 69 -12 30 -35 43 -54 29 -6 -6 -28 -13 -47 -17 -19 -3 -44 -16 -57 -28
-40 -37 -46 -15 -33 113 13 126 23 154 48 144 9 -4 64 -9 122 -12 114 -6 263
14 329 44 20 8 55 25 79 36 55 25 135 44 188 46 l40 1 12 -87z m-5290 -45 c-2
-6 -15 -18 -28 -27 l-24 -16 19 27 c20 28 40 38 33 16z m112 -27 c0 -9 -102
-100 -134 -118 -60 -35 -46 6 22 63 31 27 59 52 60 56 5 11 52 10 52 -1z m582
-104 c15 -24 42 -57 60 -75 18 -17 65 -66 103 -110 39 -43 87 -91 109 -107 46
-34 69 -83 60 -131 -4 -24 -11 -34 -25 -34 -16 0 -17 3 -8 19 7 10 9 26 6 35
-13 34 -120 60 -156 37 -26 -16 -2 -40 56 -57 76 -21 88 -34 34 -34 -23 0 -61
-9 -85 -19 -40 -19 -65 -56 -90 -134 -3 -10 -11 -17 -18 -15 -12 4 -18 14 -36
58 -10 24 -11 23 -9 -10 2 -32 0 -35 -25 -35 -22 0 -31 9 -55 55 -37 72 -88
100 -183 100 -117 0 -154 -20 -217 -118 -29 -44 -39 -53 -56 -48 -12 3 -49 12
-82 19 -60 14 -60 14 -57 48 4 44 11 50 112 93 47 20 112 53 145 73 158 96
319 267 361 382 10 28 20 51 23 51 4 0 18 -19 33 -43z m-583 -29 c-15 -13 -25
-16 -27 -8 -5 14 29 40 42 33 5 -4 -1 -15 -15 -25z m3607 -40 c20 -39 66 -79
107 -94 20 -7 34 -21 40 -40 12 -37 58 -98 77 -103 8 -2 31 -7 50 -10 32 -6
35 -10 40 -46 7 -49 53 -121 83 -129 41 -11 66 -6 96 20 35 29 56 26 110 -15
33 -25 33 -26 29 -91 -7 -99 -39 -138 -123 -149 -43 -7 -50 -16 -79 -107 -21
-67 -21 -232 -1 -300 11 -37 32 -69 80 -120 l65 -69 -29 -12 c-15 -7 -41 -26
-57 -44 -72 -79 -63 -77 -89 -20 -25 53 -44 63 -76 38 -9 -7 -23 -49 -32 -97
-9 -46 -22 -89 -27 -94 -17 -17 -171 -12 -207 7 -77 41 -98 124 -43 165 46 34
62 65 51 95 -9 23 -7 25 27 32 20 3 69 22 109 41 63 32 73 40 91 82 11 26 19
48 17 50 -2 2 -21 -10 -42 -27 -21 -16 -74 -51 -118 -76 -68 -38 -87 -45 -135
-45 -145 0 -295 85 -367 207 -14 24 -28 43 -33 43 -19 0 -78 190 -115 370 -31
154 -31 147 7 170 32 18 58 55 73 104 4 15 12 17 35 12 21 -4 42 1 68 15 68
38 76 51 97 152 5 24 10 27 46 27 54 0 102 22 130 59 12 17 24 31 26 31 1 0
10 -14 19 -32z m1980 -144 c30 -32 34 -41 34 -92 0 -79 -14 -122 -54 -165 -33
-37 -37 -38 -93 -35 l-58 3 -2 110 c-2 120 9 151 64 195 38 30 71 25 109 -16z
m-1506 -154 c0 -5 -4 -10 -9 -10 -6 0 -13 5 -16 10 -3 6 1 10 9 10 9 0 16 -4
16 -10z m-1084 -43 c-48 -31 -77 -62 -100 -110 -14 -29 -24 -43 -23 -32 1 11
5 25 9 30 3 6 9 25 13 42 5 24 18 39 48 58 42 25 92 36 53 12z m-2615 -88 c47
-16 69 -37 91 -88 43 -95 -6 -217 -95 -239 -50 -13 -128 -6 -169 14 -77 39
-98 186 -37 262 44 55 133 77 210 51z m521 -1 c14 -11 15 -34 11 -165 l-6
-153 -59 0 c-73 0 -113 21 -139 72 -44 85 -10 221 61 245 46 16 112 16 132 1z
m82 -71 c23 -32 20 -37 -16 -30 -23 4 -28 11 -28 35 0 35 15 33 44 -5z m-1160
-78 l38 -40 22 25 c20 23 24 24 76 15 30 -5 71 -8 90 -7 l35 3 7 -54 c7 -61
27 -92 86 -137 48 -38 109 -49 178 -34 95 21 147 71 159 152 12 82 53 88 79
12 8 -25 24 -56 35 -71 37 -46 24 -87 -29 -95 -22 -3 -37 -28 -17 -28 4 0 23
0 42 0 39 0 58 25 57 72 -1 34 1 34 61 2 27 -14 70 -28 98 -31 l49 -6 0 -49
c0 -129 -136 -343 -258 -406 -96 -50 -135 -56 -243 -39 -71 12 -113 25 -173
56 -75 39 -116 51 -116 33 0 -15 44 -48 93 -71 26 -13 47 -27 47 -31 0 -5 18
-15 40 -21 21 -7 37 -16 34 -21 -3 -5 -7 -89 -8 -186 -2 -97 -8 -188 -13 -202
-10 -24 -11 -24 -36 26 -14 28 -42 63 -62 78 -19 15 -45 37 -58 49 -12 13 -31
29 -42 37 -11 8 -46 49 -77 90 -31 41 -68 88 -81 105 -23 27 -23 31 -11 62 8
18 14 45 14 61 0 16 5 44 11 61 15 43 -3 158 -35 220 -13 25 -29 59 -35 75
-11 26 -15 28 -51 22 -50 -8 -111 16 -144 55 -14 16 -30 53 -37 83 -35 156 72
239 175 135z m1160 5 c31 -12 13 -100 -28 -133 -14 -12 -16 -5 -16 63 0 79 4
85 44 70z m1943 -20 c28 -17 58 -62 49 -71 -7 -7 -146 57 -146 67 0 3 6 12 12
18 14 14 51 8 85 -14z m-92 -62 c56 -22 138 -88 179 -144 28 -39 48 -107 27
-94 -6 4 -9 11 -6 16 8 13 -55 90 -102 126 -49 37 -238 114 -281 114 -16 0
-96 -12 -178 -26 -193 -33 -284 -73 -369 -163 -63 -66 -92 -82 -51 -28 15 19
26 39 26 44 0 16 84 81 148 115 31 17 63 35 70 41 7 6 55 14 105 19 51 4 118
14 150 21 51 11 70 11 146 -4 48 -10 109 -26 136 -37z m2604 -41 c1 -79 19
-179 42 -233 l19 -48 -24 -38 c-81 -129 -347 -268 -469 -245 -39 8 -70 50 -61
83 4 14 8 35 9 48 1 20 14 28 76 49 41 14 85 33 99 42 49 31 142 117 186 173
50 63 68 103 84 175 6 26 13 59 17 73 l6 25 7 -25 c5 -14 8 -49 9 -79z m-4792
36 c-3 -21 -4 -20 -15 6 -7 16 -9 33 -6 39 10 16 26 -19 21 -45z m4283 34 c0
-38 -112 -101 -179 -101 -57 0 -136 40 -128 64 2 6 35 10 83 9 52 -2 101 4
144 16 82 23 80 23 80 12z m-441 -112 c15 -67 75 -189 113 -228 17 -17 26 -31
21 -31 -17 0 -100 94 -123 139 -28 57 -62 169 -55 182 12 19 33 -11 44 -62z
m-2722 17 c30 -15 47 -39 36 -50 -3 -3 -26 7 -52 22 -40 24 -56 27 -128 26
-87 -1 -110 11 -45 21 20 4 41 8 46 9 21 5 115 -13 143 -28z m-2297 -59 c0 -7
-8 -22 -18 -33 -10 -10 -25 -30 -35 -44 l-17 -24 0 37 c0 24 7 44 20 57 23 23
50 26 50 7z m2734 -76 c-11 -9 -30 -34 -44 -54 -25 -37 -43 -46 -55 -27 -9 15
7 37 60 81 29 24 51 36 53 29 2 -6 -4 -19 -14 -29z m610 -21 c75 -66 155 -116
204 -129 l39 -11 22 -87 c13 -49 38 -126 56 -173 43 -111 62 -216 46 -260 -6
-18 -11 -48 -11 -66 0 -18 -5 -36 -10 -39 -6 -4 -20 -25 -32 -48 -33 -65 -85
-130 -122 -152 -19 -11 -55 -33 -81 -49 -60 -37 -146 -55 -266 -56 -154 0
-276 50 -384 160 -52 53 -67 59 -91 35 -10 -10 -35 -15 -74 -15 -71 0 -110 27
-128 88 -18 61 -15 87 17 121 26 27 35 31 84 31 35 0 59 5 67 14 8 10 11 51 9
125 l-3 110 36 40 c20 21 44 51 54 66 l17 26 19 -21 c24 -25 34 -25 83 1 56
30 122 95 157 157 21 37 33 50 39 41 4 -7 1 -26 -8 -42 -12 -24 -13 -34 -3
-53 24 -44 42 -39 102 26 37 40 58 56 62 48 3 -7 4 -3 2 9 -2 12 0 23 5 25 5
2 12 31 15 66 4 34 10 62 14 62 4 0 33 -23 64 -50z m-854 11 c19 -37 12 -81
-20 -113 -41 -41 -65 -34 -64 18 1 45 37 114 59 114 8 0 19 -9 25 -19z m301
-28 c-5 -21 -15 -29 -34 -31 -15 -2 -27 -1 -27 3 0 16 37 54 52 55 13 0 15 -6
9 -27z m-2881 -52 c-13 -50 -30 -54 -30 -6 0 22 6 37 17 44 24 13 26 9 13 -38z
m5346 -156 c16 -8 37 -15 47 -15 27 0 13 -15 -47 -49 -30 -17 -93 -64 -139
-106 l-85 -75 -55 32 c-30 18 -69 41 -87 51 l-32 17 41 40 c33 33 46 39 67 34
34 -9 109 21 128 51 9 13 16 37 16 53 l0 30 58 -24 c32 -13 72 -30 88 -39z
m156 -57 c-3 -13 -12 -33 -19 -45 -10 -15 -13 -37 -8 -75 7 -65 36 -93 110
-108 58 -12 260 1 294 19 12 7 26 9 31 6 10 -6 47 23 89 69 14 15 39 35 56 43
16 9 45 31 65 49 41 39 49 41 83 14 14 -11 29 -20 34 -20 6 0 22 -21 36 -47
14 -27 38 -60 52 -75 14 -15 25 -32 25 -38 0 -5 5 -10 10 -10 6 0 10 -8 10
-19 0 -10 7 -24 15 -31 13 -11 18 -10 30 6 8 10 15 22 15 27 0 4 4 7 9 7 5 0
8 -17 7 -37 -1 -37 0 -38 37 -41 24 -2 37 -8 37 -17 0 -17 -39 -55 -57 -55
-13 0 -17 -20 -13 -75 2 -37 8 -44 20 -25 8 13 10 13 10 -1 0 -9 7 -20 16 -23
13 -5 10 -12 -19 -39 -34 -31 -36 -38 -52 -142 -10 -67 -30 -130 -42 -138 -7
-4 -13 -16 -13 -25 0 -9 -11 -39 -25 -67 -24 -49 -36 -97 -16 -66 13 21 20
-18 8 -46 -17 -39 -36 -36 -30 5 7 44 1 39 -51 -37 -37 -54 -43 -75 -26 -86 5
-3 6 -13 3 -21 -4 -11 -14 -14 -34 -10 -16 3 -29 2 -29 -2 0 -8 -37 -53 -77
-95 -19 -20 -24 -30 -15 -36 18 -11 -20 -76 -46 -76 -11 0 -34 -11 -51 -25
-18 -13 -40 -28 -50 -34 -16 -10 -90 -63 -116 -84 -29 -22 -107 -72 -115 -72
-4 0 -10 -3 -12 -8 -1 -4 -33 -20 -70 -36 -38 -15 -68 -32 -68 -37 0 -4 10
-15 22 -23 12 -9 20 -16 16 -16 -3 0 -14 -3 -24 -7 -11 -4 -15 -3 -11 4 4 6
-2 13 -13 16 -11 3 -18 1 -14 -4 3 -5 -9 -10 -25 -10 -17 -1 -37 -2 -43 -3 -7
-1 -26 -13 -43 -28 -36 -33 -49 -35 -40 -8 3 11 3 20 -2 20 -13 -1 -53 -37
-53 -49 0 -6 -11 -11 -24 -11 -14 0 -28 -4 -31 -10 -3 -5 -17 -10 -31 -10 -13
0 -24 -4 -24 -9 0 -5 -9 -7 -19 -4 -10 3 -28 0 -40 -6 -17 -10 -21 -9 -21 4 0
18 -9 18 -115 6 -228 -27 -387 -30 -540 -13 -49 6 -120 13 -157 16 -67 6 -68
6 -68 -19 0 -22 -4 -25 -39 -25 -22 0 -43 -5 -46 -10 -9 -15 -22 -4 -41 35 -9
19 -20 33 -24 30 -16 -10 -20 66 -10 152 6 48 10 108 9 134 -2 25 0 50 4 56 4
6 81 13 194 17 103 4 229 12 278 18 50 5 101 11 115 13 14 2 57 8 95 14 39 7
102 16 140 21 76 10 276 77 340 115 155 91 323 254 464 450 78 110 211 318
211 332 0 36 -57 1 -76 -48 -9 -21 -21 -39 -28 -39 -6 0 -20 -21 -30 -48 -11
-26 -32 -58 -47 -72 -14 -14 -36 -45 -48 -68 -12 -24 -28 -45 -36 -48 -7 -3
-36 -36 -63 -72 -72 -98 -103 -132 -119 -132 -12 0 -11 3 2 16 13 13 15 28 9
73 -4 31 -11 66 -15 79 -5 13 -9 49 -9 80 0 39 -8 73 -25 110 -13 28 -26 52
-29 52 -3 0 -4 -29 -2 -65 3 -61 -4 -79 -20 -54 -3 6 -8 48 -10 92 -2 45 -6
97 -10 115 -4 21 -3 32 5 32 19 0 12 36 -17 92 -42 80 -42 81 -57 68 -11 -9
-17 -3 -31 27 -10 21 -31 54 -47 75 -28 35 -28 37 -11 63 18 27 59 58 184 138
84 53 101 58 92 25z m531 -15 c-10 -10 -23 -24 -29 -32 -9 -12 -12 -11 -17 2
-4 12 2 21 21 31 37 20 47 20 25 -1z m328 -3 c11 0 23 -10 28 -22 9 -25 -4
-37 -21 -20 -7 7 -17 8 -28 2 -9 -5 -22 -5 -29 -1 -9 6 -7 10 8 14 12 3 21 11
21 19 0 10 -3 9 -10 -2 -11 -18 -13 -9 -3 16 4 11 8 13 11 6 2 -7 12 -12 23
-12z m-2540 -54 c30 -13 35 -21 44 -68 11 -55 7 -99 -10 -104 -10 -3 -52 86
-74 154 -11 36 -7 38 40 18z m2635 -58 c10 -19 12 -34 6 -40 -12 -12 -56 57
-47 72 9 14 22 4 41 -32z m-96 18 c0 -2 -9 -6 -20 -9 -11 -3 -18 -1 -14 4 5 9
34 13 34 5z m-1455 -16 c3 -5 15 -10 26 -10 11 0 34 -15 52 -32 27 -28 30 -37
22 -55 -10 -25 -25 -31 -25 -11 0 9 -3 9 -12 0 -7 -7 -16 -12 -22 -12 -5 0 -1
6 10 14 18 14 18 17 3 43 -13 25 -21 28 -62 27 -37 0 -47 3 -47 16 0 9 3 20 7
23 10 10 41 8 48 -3z m-4375 -104 c34 -46 138 -170 157 -188 99 -93 182 -180
198 -208 26 -45 45 -44 70 2 23 43 34 46 61 17 15 -17 19 -36 19 -107 -1 -212
-6 -322 -15 -322 -14 0 -43 31 -98 103 -26 35 -74 99 -106 141 -47 61 -60 85
-59 111 1 47 20 75 55 82 28 6 29 7 13 19 -25 19 -65 -7 -116 -73 -22 -29 -45
-53 -52 -53 -26 0 -139 148 -164 215 -60 157 -73 202 -73 243 0 51 12 78 29
68 5 -4 16 3 23 14 12 18 13 19 17 3 2 -9 20 -40 41 -67z m4274 76 c3 -5 -12
-26 -34 -47 -37 -36 -43 -65 -15 -65 22 0 53 -53 57 -96 l3 -39 68 -3 c37 -2
67 -7 67 -12 0 -10 -111 -47 -171 -56 -37 -6 -77 -34 -50 -34 7 0 9 -4 6 -10
-3 -5 -24 -10 -45 -10 -21 0 -43 -6 -47 -13 -4 -7 -21 -22 -36 -34 -15 -12
-46 -45 -69 -73 -22 -28 -54 -58 -72 -67 -31 -16 -112 -83 -100 -83 4 0 -5 -9
-19 -21 -15 -11 -40 -33 -56 -50 -16 -16 -37 -29 -45 -29 -18 0 -91 -43 -101
-60 -17 -27 -33 -5 -48 68 -10 42 -29 102 -43 132 l-25 55 26 22 c14 13 38 25
53 28 34 7 155 69 206 107 22 15 45 28 51 28 6 0 21 11 34 23 12 13 45 41 74
62 52 38 53 39 66 114 8 42 16 93 18 114 7 56 30 47 38 -15 5 -41 14 -60 37
-81 29 -27 31 -36 17 -86 -8 -26 21 -22 33 4 11 24 9 33 -10 68 l-22 40 22 26
c84 97 116 119 132 93z m-850 -23 c20 -12 34 -25 31 -30 -7 -10 -74 -43 -79
-38 -4 5 5 89 9 89 2 0 20 -9 39 -21z m196 -28 c-5 -11 -15 -22 -22 -24 -8 -3
-6 -6 5 -6 9 -1 17 -7 17 -15 0 -21 47 -74 73 -82 12 -3 30 -16 39 -27 14 -18
30 -22 97 -25 45 -2 81 -7 81 -11 -1 -10 -199 -141 -214 -141 -7 0 -21 -8 -30
-19 -9 -10 -45 -26 -79 -36 -34 -9 -70 -24 -79 -32 -10 -9 -28 -13 -44 -10
-15 2 -56 -2 -93 -9 -36 -8 -79 -14 -96 -14 -16 -1 -48 -7 -70 -15 -21 -8 -41
-13 -42 -11 -2 2 14 23 36 47 66 75 104 148 112 214 8 66 12 70 124 148 50 34
159 85 188 86 4 1 3 -8 -3 -18z m770 1 c0 -4 -21 -27 -46 -50 -37 -35 -48 -41
-60 -31 -23 19 -17 34 24 62 35 25 82 36 82 19z m10 -51 c0 -5 -7 -12 -16 -15
-14 -5 -15 -4 -4 9 14 17 20 19 20 6z m262 -93 c5 -13 2 -21 -10 -25 -42 -16
-54 -63 -24 -96 18 -20 19 -23 26 -135 3 -53 1 -70 -7 -65 -7 3 -8 2 -4 -3 5
-5 14 -9 20 -9 8 0 13 -23 15 -60 2 -33 8 -62 14 -66 6 -4 7 -12 2 -20 -5 -8
-9 -51 -9 -96 0 -73 -2 -84 -22 -98 -19 -14 -21 -23 -20 -109 1 -86 -1 -97
-22 -119 -12 -14 -32 -27 -44 -30 -12 -2 -67 -16 -122 -31 -138 -36 -138 -36
-130 16 4 24 14 61 23 83 28 75 67 349 56 388 -9 28 -37 15 -45 -19 -3 -18
-10 -40 -14 -50 -4 -11 -8 -29 -8 -42 1 -19 0 -20 -4 -2 -8 36 -21 21 -28 -31
-6 -40 -14 -58 -44 -86 -36 -34 -36 -35 -8 -29 23 6 27 3 28 -16 0 -13 10 11
22 52 25 89 35 68 17 -38 -9 -50 -16 -69 -22 -59 -9 18 -49 11 -61 -10 -7 -11
-12 -11 -22 -3 -11 9 -16 7 -25 -9 -11 -21 -50 -29 -50 -11 0 6 -9 10 -20 10
-11 0 -20 4 -20 9 0 4 -10 8 -22 7 -25 -1 -41 -27 -31 -51 4 -13 -3 -12 -46 5
-36 14 -51 16 -51 7 0 -23 15 -34 60 -44 l45 -11 -37 -1 c-26 -1 -42 -7 -50
-21 -12 -18 -24 -20 -123 -20 -67 0 -115 -4 -122 -11 -14 -14 -73 15 -73 36 0
8 -12 18 -27 21 -16 4 -31 11 -34 17 -4 5 -14 5 -27 -2 -35 -19 -49 -12 -17 8
17 11 43 31 59 45 16 14 31 26 32 26 2 0 2 -20 1 -45 -2 -40 0 -45 19 -45 31
0 38 27 16 65 -18 30 -18 32 -1 53 9 12 22 22 28 22 6 0 11 5 11 12 0 6 2 9 5
6 9 -9 -7 -38 -21 -38 -15 0 -19 -12 -8 -23 4 -4 22 9 40 28 20 22 45 37 66
40 18 3 27 3 21 -1 -18 -8 -16 -34 2 -34 8 0 15 7 15 15 0 14 9 17 65 18 16 0
17 1 3 4 -10 3 -18 11 -18 19 0 8 8 14 18 14 14 0 15 2 2 10 -8 6 -34 7 -57 4
-35 -5 -43 -3 -43 10 0 9 6 16 13 16 7 0 35 23 62 50 27 28 56 50 64 50 8 0
30 15 48 32 28 27 35 30 43 18 8 -13 10 -13 10 2 0 9 -4 20 -10 23 -13 8 11
45 30 45 12 -1 12 -3 -2 -14 -10 -7 -16 -15 -13 -18 3 -2 7 -18 8 -34 4 -32
26 -78 27 -56 0 10 5 10 20 2 16 -9 20 -8 20 6 0 9 9 18 20 21 11 3 20 12 20
19 0 8 -9 14 -20 14 -11 0 -20 6 -20 14 0 8 -6 17 -12 20 -10 5 -10 7 0 12 19
9 14 24 -8 24 -11 0 -20 2 -20 4 0 2 18 31 40 64 28 42 46 59 56 55 8 -3 25 3
37 14 27 25 68 47 66 36 -4 -26 1 -35 15 -24 8 7 12 21 9 31 -4 16 4 24 42 40
26 11 55 20 66 20 15 0 17 5 13 29 -5 23 -2 30 15 36 12 3 25 14 30 23 10 20
11 98 0 81 -5 -8 -12 -8 -25 0 -12 7 -14 10 -5 11 14 0 51 37 51 51 0 11 28 0
70 -28 30 -20 36 -21 49 -8 12 12 12 19 2 42 -11 26 -10 25 16 -6 15 -19 31
-43 35 -53z m1328 78 c0 -2 -7 -7 -16 -10 -8 -3 -12 -2 -9 4 6 10 25 14 25 6z
m-5511 -30 c32 -34 60 -116 76 -220 13 -90 7 -128 -14 -87 -12 22 -80 61 -107
61 -11 0 -14 5 -10 17 18 47 25 110 19 177 -6 82 -1 91 36 52z m825 -18 c28
-23 67 -58 88 -77 l36 -34 -20 -42 c-18 -37 -19 -45 -7 -70 22 -43 30 -35 33
31 1 34 9 70 18 82 10 16 14 37 10 72 -4 41 -2 50 11 50 9 0 19 -5 22 -10 11
-17 45 -148 45 -171 0 -12 17 -37 37 -56 37 -33 223 -143 243 -143 6 0 34 -13
63 -29 28 -17 74 -35 100 -41 91 -20 114 -72 83 -188 -28 -104 -75 -119 -185
-61 -30 16 -58 29 -63 29 -11 0 -186 129 -248 183 -25 21 -47 48 -50 59 -9 35
-51 57 -125 67 -38 5 -86 16 -106 25 -20 8 -58 18 -86 22 -53 7 -82 19 -71 29
8 8 34 8 86 -1 l42 -7 0 36 c0 37 30 106 56 128 23 19 16 35 -36 79 -46 39
-66 80 -38 80 6 0 35 -19 62 -42z m3116 23 c0 -15 -79 -81 -98 -81 -51 0 -32
41 31 67 61 25 67 26 67 14z m1624 -23 c20 -24 26 -43 26 -77 l0 -46 -20 43
c-10 23 -24 42 -30 42 -7 0 -9 8 -5 19 3 11 1 22 -5 26 -5 3 -10 10 -10 16 0
18 17 9 44 -23z m-6211 -97 c15 -32 27 -68 27 -78 0 -11 17 -44 38 -74 20 -30
43 -65 50 -79 7 -14 29 -47 48 -73 29 -39 40 -48 57 -43 12 3 39 0 61 -6 33
-10 40 -10 51 5 13 17 26 23 23 10 0 -5 2 -17 6 -28 4 -11 13 -33 18 -48 9
-23 15 -27 37 -23 22 5 28 1 42 -29 15 -33 15 -35 -2 -40 -20 -7 -27 -45 -9
-45 6 0 10 9 10 20 0 11 5 20 10 20 6 0 10 -7 10 -16 0 -10 6 -14 15 -10 16 6
32 -8 73 -62 33 -45 73 -81 89 -82 6 0 13 -6 16 -12 6 -18 26 2 33 33 2 13 8
108 11 211 l6 188 23 -6 c32 -8 46 28 33 84 -5 22 -11 66 -14 98 -3 37 -13 70
-26 87 -43 58 -6 37 83 -49 70 -66 115 -121 181 -222 48 -73 87 -137 87 -143
0 -5 4 -9 9 -9 5 0 11 -8 15 -17 15 -44 98 -160 164 -228 44 -46 72 -83 70
-93 -2 -9 -25 -27 -51 -40 -29 -14 -51 -32 -57 -47 -5 -14 -20 -30 -32 -36
-13 -6 -41 -32 -63 -59 -33 -41 -44 -47 -68 -44 -39 5 -40 6 -28 45 7 26 9 28
10 12 1 -22 21 -34 21 -12 0 5 4 8 9 4 5 -3 13 0 17 6 5 8 8 8 14 0 4 -7 12 6
19 29 10 34 9 45 -3 68 -38 69 -56 109 -56 129 0 28 -37 91 -61 104 -23 12
-53 68 -69 129 -14 54 -26 70 -51 70 -25 0 -24 -6 7 -76 54 -121 85 -250 91
-384 6 -144 2 -153 -77 -163 -50 -7 -97 -17 -185 -41 -72 -19 -203 -26 -209
-11 -2 6 -31 19 -65 28 -69 19 -114 54 -143 111 -11 21 -28 41 -39 43 -10 3
-19 12 -19 20 0 9 -16 50 -36 92 -31 65 -39 93 -43 144 -1 5 -10 6 -20 2 -16
-5 -21 0 -26 27 -12 58 -16 68 -31 68 -20 0 -18 -26 12 -164 26 -119 75 -273
119 -371 41 -92 43 -87 -33 -122 -78 -37 -106 -71 -78 -98 22 -22 62 -12 72
18 9 30 47 64 81 71 15 4 80 13 143 21 160 20 240 37 350 73 144 47 140 46
140 26 0 -10 4 -31 9 -48 5 -17 17 -67 26 -111 9 -44 21 -92 27 -107 20 -53
15 -91 -16 -123 l-29 -30 6 40 c8 53 -2 68 -39 59 -30 -8 -91 -40 -111 -60 -7
-7 -10 -21 -6 -31 5 -15 4 -16 -8 -7 -8 7 -28 15 -46 18 -25 6 -34 3 -45 -13
-11 -16 -22 -20 -51 -16 -20 3 -49 -1 -64 -7 l-28 -12 30 -4 c17 -2 54 -10 84
-18 36 -9 59 -10 71 -4 10 6 34 10 52 10 l33 -1 -39 -24 c-22 -13 -57 -27 -78
-30 -21 -4 -45 -13 -53 -22 -16 -15 -61 -31 -111 -38 -23 -3 -31 0 -31 12 0
11 8 14 31 10 17 -3 25 -3 18 0 -6 2 -10 9 -6 14 3 5 0 8 -7 7 -6 -2 -12 9
-13 25 -1 16 -8 32 -16 38 -22 14 -92 0 -113 -22 -19 -20 -52 -25 -62 -9 -10
15 -35 12 -35 -5 0 -21 -17 -19 -30 5 -6 11 -16 20 -23 20 -7 0 -42 11 -78 25
-35 14 -76 27 -90 28 -14 2 -36 14 -48 26 -12 12 -29 20 -37 17 -10 -4 -14 2
-14 17 0 13 -15 38 -34 56 -19 19 -36 46 -38 60 -2 17 -15 32 -38 46 -19 11
-36 29 -38 40 -2 11 -10 40 -19 65 -8 25 -16 50 -17 55 -4 13 -15 41 -38 92
-31 71 -48 180 -54 343 -4 99 -10 158 -18 163 -8 5 -5 12 8 22 15 12 18 27 18
96 0 45 3 92 8 103 5 14 3 26 -7 35 -12 11 -12 15 -2 22 7 4 17 6 21 3 4 -3
17 0 28 6 15 8 19 17 15 30 -4 13 2 28 20 46 14 14 32 49 39 77 12 47 16 52
39 49 26 -3 50 22 75 81 18 41 35 33 65 -32z m1397 19 c48 -19 61 -36 36 -46
-21 -8 -64 10 -99 40 -49 42 -34 44 63 6z m-27 -87 c46 -6 48 -7 42 -32 -9
-35 -13 -37 -33 -23 -9 7 -36 21 -59 32 -45 20 -60 47 -20 36 12 -4 44 -9 70
-13z m3487 -74 c0 -6 -4 -7 -10 -4 -5 3 -10 11 -10 16 0 6 5 7 10 4 6 -3 10
-11 10 -16z m1333 0 c-11 -12 -26 -18 -32 -14 -17 10 6 35 32 35 l21 0 -21
-21z m-1283 -4 c0 -8 -4 -15 -9 -15 -13 0 -22 16 -14 24 11 11 23 6 23 -9z
m-543 -11 c-3 -3 -12 -4 -19 -1 -8 3 -5 6 6 6 11 1 17 -2 13 -5z m-4672 -44
c-3 -5 -13 -10 -21 -10 -8 0 -12 5 -9 10 3 6 13 10 21 10 8 0 12 -4 9 -10z
m-60 -160 c4 -16 4 -34 0 -40 -3 -5 -1 -10 4 -10 6 0 11 -7 11 -17 0 -13 -4
-11 -20 7 -20 23 -28 90 -11 90 5 0 12 -13 16 -30z m3499 -55 c9 -24 -21 -88
-52 -110 -40 -30 -158 -27 -217 5 -65 36 -101 110 -52 110 12 0 34 -7 49 -14
39 -20 173 -15 196 7 21 21 68 22 76 2z m2976 -11 c0 -8 -4 -12 -10 -9 -5 3
-10 10 -10 16 0 5 5 9 10 9 6 0 10 -7 10 -16z m-6456 -123 c2 -61 -1 -81 -11
-81 -9 0 -13 14 -13 40 0 22 -4 40 -10 40 -11 0 -13 39 -4 64 3 9 10 13 15 10
5 -3 9 0 9 7 0 7 2 10 5 7 3 -3 7 -42 9 -87z m5340 -160 c-15 -15 -16 -14 -11
14 3 17 10 68 14 115 l8 85 3 -99 c2 -82 0 -102 -14 -115z m-966 71 c2 -7 -3
-12 -12 -12 -9 0 -16 7 -16 16 0 17 22 14 28 -4z m-2368 0 c0 -14 -23 -32 -42
-32 -18 0 -25 20 -11 33 9 10 53 9 53 -1z m129 -26 c13 -16 6 -42 -15 -50 -8
-3 -24 4 -35 15 -11 11 -25 17 -32 12 -8 -4 -8 -1 1 9 8 9 23 19 35 21 12 2
25 5 28 6 4 0 12 -5 18 -13z m-111 -65 l43 -29 -23 -16 c-20 -14 -24 -14 -41
2 -10 9 -25 29 -33 44 -19 37 -2 37 54 -1z m-69 -20 c24 -34 27 -57 7 -64 -25
-10 -66 58 -51 83 10 17 23 11 44 -19z m2076 -28 c-7 -29 -26 -47 -35 -35 -3
4 -11 7 -17 8 -30 2 -32 5 -14 23 20 20 38 29 60 30 9 1 11 -6 6 -26z m-2139
-28 c10 -31 10 -35 -5 -35 -10 0 -26 6 -36 14 -18 13 -18 15 -1 41 20 31 25
28 42 -20z m2728 29 c7 -17 -15 -44 -36 -44 -8 0 -6 5 5 11 18 10 18 12 1 30
-16 18 -16 19 3 19 12 0 24 -7 27 -16z m-4633 -32 c-6 -2 -8 -9 -4 -15 4 -7
-1 -6 -10 2 -22 18 -22 39 1 43 19 4 31 -24 13 -30z m3911 -7 c-12 -22 -27 -2
-18 22 5 12 10 13 17 6 7 -7 8 -17 1 -28z m-179 -39 c109 -53 242 -139 257
-166 6 -11 24 -27 41 -36 29 -14 30 -18 24 -57 -3 -23 -11 -104 -18 -179 l-11
-138 -50 -1 c-28 -1 -71 -2 -96 -3 -97 -2 -269 14 -340 32 -112 29 -216 80
-198 97 13 14 89 -7 111 -31 12 -13 38 -26 57 -30 37 -7 33 10 -5 19 -11 3 -1
5 23 6 70 2 29 32 -82 60 -75 19 -167 64 -208 103 -21 19 -38 38 -38 42 0 13
45 5 94 -18 73 -34 218 -79 239 -75 39 8 13 25 -91 60 -116 40 -272 114 -272
130 0 5 12 14 27 20 22 8 49 2 152 -32 212 -70 218 -72 238 -60 15 8 8 14 -47
40 -36 17 -91 34 -122 39 -42 7 -70 19 -108 48 l-51 39 44 3 c25 2 80 -6 123
-17 44 -10 104 -22 134 -26 30 -4 79 -13 109 -20 63 -16 71 -14 71 23 0 21
-10 33 -45 56 -25 15 -52 38 -60 49 -17 25 -20 67 -4 67 6 0 52 -20 102 -44z
m2687 14 c-37 -31 -56 -39 -44 -17 17 29 39 47 58 47 17 0 15 -4 -14 -30z
m-3555 -113 c53 -51 61 -83 18 -72 -29 7 -94 48 -114 71 -13 15 -4 47 19 70
14 15 16 15 23 -5 5 -11 29 -40 54 -64z m1665 8 l65 -10 -60 -6 c-102 -12
-235 -10 -235 2 0 6 9 9 19 6 12 -3 18 0 15 7 -5 14 99 15 196 1z m-412 -4
c10 -6 8 -10 -9 -14 -24 -7 -39 -1 -39 14 0 11 30 12 48 0z m-1301 -89 c22
-15 55 -35 72 -44 35 -19 49 -44 33 -60 -8 -8 -33 0 -89 26 -94 45 -113 61
-113 96 0 36 10 43 34 25 12 -9 40 -28 63 -43z m-1362 -13 c21 -39 95 -254 95
-274 0 -8 -4 -15 -9 -15 -6 0 -31 -18 -56 -40 -25 -22 -50 -40 -54 -40 -22 0
-121 267 -121 326 0 26 14 39 66 57 57 21 62 20 79 -14z m4665 21 c0 -5 -2
-10 -4 -10 -3 0 -8 5 -11 10 -3 6 -1 10 4 10 6 0 11 -4 11 -10z m-90 -40 c-23
-15 7 -31 37 -19 30 11 23 -3 -16 -30 -27 -19 -30 -20 -42 -4 -12 15 -12 16 4
10 15 -6 16 -4 7 13 -12 22 -6 40 13 40 7 0 6 -4 -3 -10z m-3259 -55 c46 -19
90 -50 84 -57 -4 -3 8 -12 24 -19 34 -15 39 -27 17 -35 -17 -7 -114 32 -139
56 -15 13 -32 70 -22 70 1 0 18 -7 36 -15z m-2651 -61 c0 -2 -9 -4 -20 -4 -20
0 -21 3 -11 60 1 5 31 -49 31 -56z m2714 -79 c41 -17 40 -35 -3 -35 -29 0 -51
16 -51 37 0 17 9 16 54 -2z m2986 -6 c12 -3 7 -12 -17 -37 -26 -26 -32 -29
-30 -13 1 13 6 17 17 13 13 -5 12 -2 -2 20 -13 20 -14 28 -5 31 6 2 14 1 17
-3 3 -4 12 -9 20 -11z m-5280 -9 c0 -5 -4 -10 -10 -10 -5 0 -10 5 -10 10 0 6
5 10 10 10 6 0 10 -4 10 -10z m4827 -106 c-3 -3 -12 -4 -19 -1 -8 3 -5 6 6 6
11 1 17 -2 13 -5z m253 -14 c12 -22 -2 -33 -60 -45 -33 -7 -34 -6 -15 9 11 8
31 16 45 16 23 1 23 2 5 10 -18 8 -18 9 -2 9 10 1 15 6 12 11 -3 6 -4 10 -1
10 3 0 10 -9 16 -20z m35 10 c3 -6 -1 -7 -9 -4 -18 7 -21 14 -7 14 6 0 13 -4
16 -10z m-1245 -40 c0 -5 -2 -10 -4 -10 -3 0 -8 5 -11 10 -3 6 -1 10 4 10 6 0
11 -4 11 -10z m-213 -36 c-3 -3 -12 -4 -19 -1 -8 3 -5 6 6 6 11 1 17 -2 13 -5z
m-2920 -20 c5 -15 -29 -28 -37 -14 -5 8 -12 7 -23 -4 -8 -9 -19 -16 -23 -16
-5 0 -3 5 3 11 6 6 9 17 7 24 -4 9 5 13 32 12 21 -1 39 -7 41 -13z m2974 -4
c-30 -5 -64 -4 -75 0 -14 6 4 9 54 8 l75 0 -54 -8z m392 -67 c-7 -2 -19 -2
-25 0 -7 3 -2 5 12 5 14 0 19 -2 13 -5z m360 0 c-7 -2 -19 -2 -25 0 -7 3 -2 5
12 5 14 0 19 -2 13 -5z m-4673 -37 c0 -2 -8 -10 -17 -17 -16 -13 -17 -12 -4 4
13 16 21 21 21 13z m-355 -34 c-6 -7 -34 11 -29 19 3 5 11 3 19 -4 7 -6 12
-13 10 -15z m5788 14 c4 -10 1 -13 -8 -9 -8 3 -12 9 -9 14 7 12 11 11 17 -5z
m-5415 -18 c20 -20 14 -28 -13 -16 -13 6 -22 15 -19 19 7 12 18 11 32 -3z
m3146 -246 c121 -120 256 -251 298 -292 77 -75 78 -75 60 -98 l-18 -23 -84 86
c-103 104 -100 100 -75 92 18 -7 19 -6 3 6 -10 8 -15 17 -11 20 3 4 1 7 -4 7
-6 0 -13 -5 -15 -11 -6 -17 -44 6 -65 39 -10 15 -33 41 -52 57 -150 129 -216
200 -216 232 0 33 -45 69 -70 56 -33 -19 -192 -170 -360 -343 -187 -192 -220
-221 -241 -213 -31 12 -38 4 323 352 258 248 260 250 287 251 11 0 106 -86
240 -218z m-2737 186 c-50 -27 -242 -28 -302 -2 -26 12 -9 14 142 11 94 -1
166 -5 160 -9z m3158 -6 l30 -6 -25 -7 c-35 -10 -90 -11 -90 -1 0 16 25 32 40
27 8 -4 29 -9 45 -13z m-192 -7 c1 -5 -6 -11 -15 -13 -11 -2 -18 3 -18 13 0
17 30 18 33 0z m-2818 -35 c-3 -5 -10 -10 -16 -10 -5 0 -9 5 -9 10 0 6 7 10
16 10 8 0 12 -4 9 -10z m730 -14 c112 -39 152 -105 180 -294 6 -34 12 -45 33
-53 42 -16 94 -100 76 -124 -5 -6 -21 -31 -37 -54 -19 -29 -34 -41 -51 -41
-13 0 -27 -7 -30 -16 -3 -8 -2 -12 4 -9 6 4 10 -12 10 -39 0 -45 24 -86 50
-86 6 0 10 -4 10 -10 0 -17 -36 -11 -55 10 -10 11 -21 17 -26 15 -4 -3 -10 -1
-13 4 -8 13 -48 2 -66 -18 -20 -22 -70 -44 -70 -30 0 20 50 108 80 141 36 39
47 73 30 93 -16 19 -40 19 -40 1 0 -16 -70 -77 -80 -71 -4 2 -5 26 -3 52 5 53
-20 240 -34 254 -5 5 -16 4 -26 -3 -14 -10 -18 -34 -22 -108 -8 -155 -15 -193
-31 -179 -8 6 -14 18 -14 25 0 7 -21 34 -46 60 -36 35 -49 43 -55 33 -14 -22
-11 14 5 63 15 47 40 147 41 163 1 28 19 35 86 35 39 0 69 4 69 10 0 6 9 10
20 10 16 0 20 7 20 30 0 17 5 30 11 30 16 0 0 20 -25 30 -20 8 -20 9 4 10 24
1 24 1 6 15 -29 22 -74 18 -130 -10 -73 -37 -101 -31 -53 12 56 52 116 69 172
49z m4055 -6 c0 -5 -9 -10 -20 -10 -11 0 -20 5 -20 10 0 6 9 10 20 10 11 0 20
-4 20 -10z m-1788 -103 c-5 -84 -7 -89 -39 -83 -16 2 -49 5 -74 5 -55 1 -61
10 -52 80 l6 50 41 3 c22 2 59 4 82 5 l40 1 -4 -61z m-410 -172 l225 -220 -2
-455 -3 -455 -111 -3 -111 -3 0 201 c0 110 -1 203 -2 208 -1 4 11 9 27 12 32
5 42 27 44 92 1 30 -7 45 -48 90 -68 75 -148 107 -268 109 -83 2 -92 0 -160
-35 -100 -50 -142 -106 -143 -188 0 -47 4 -59 19 -68 11 -5 27 -7 35 -4 15 6
16 -15 14 -202 l-3 -209 -112 -3 -113 -3 0 451 0 450 233 230 c127 127 237
229 243 228 7 -2 113 -102 236 -223z m1483 147 c6 -4 11 -24 13 -45 2 -42 -6
-66 -17 -49 -8 14 -22 5 -49 -34 -19 -28 -20 -33 -6 -53 14 -19 22 -21 61 -15
52 8 63 -2 63 -53 0 -17 5 -44 11 -60 l12 -28 12 40 c10 35 12 37 18 16 3 -13
-1 -42 -8 -65 -8 -23 -15 -57 -17 -75 -1 -18 -6 -35 -10 -37 -9 -6 7 -23 37
-40 30 -17 39 -69 18 -99 -14 -19 -60 -45 -79 -45 -12 0 1 29 32 72 57 80 5
96 -58 17 -17 -21 -34 -39 -38 -39 -4 0 -9 72 -12 160 -6 165 -12 190 -49 190
-18 0 -19 -10 -19 -150 0 -160 -4 -171 -45 -110 -11 17 -26 30 -33 30 -7 0
-10 5 -7 10 9 14 -29 12 -43 -2 -19 -19 -14 -36 26 -81 66 -73 72 -88 72 -181
0 -58 -4 -86 -12 -88 -9 -3 -8 -9 5 -22 18 -19 22 -75 11 -160 -7 -46 -7 -46
-45 -46 -36 0 -39 2 -63 55 -30 67 -72 90 -148 83 l-48 -5 0 168 c0 145 2 169
15 169 9 0 20 -12 26 -27 32 -84 77 -158 111 -183 42 -31 96 -55 104 -47 3 2
7 24 9 48 3 31 -2 52 -16 76 -23 37 -43 41 -78 17 -23 -16 -23 -16 -11 6 7 13
8 20 1 16 -5 -4 -15 3 -21 15 -9 16 -19 20 -40 17 -27 -4 -29 -2 -26 23 2 15
15 40 30 55 33 36 33 43 -4 89 -18 23 -30 50 -30 67 0 20 10 39 30 58 17 15
30 32 30 37 0 4 14 20 32 35 30 24 33 32 31 75 -1 39 5 58 33 105 47 77 75 98
133 98 25 0 51 -4 56 -8z m585 -60 c0 -15 -2 -15 -10 -2 -13 20 -13 33 0 25 6
-3 10 -14 10 -23z m-2530 3 c0 -7 -50 -55 -57 -55 -4 0 6 14 22 30 28 30 35
34 35 25z m-2571 -34 c35 -49 61 -114 61 -153 0 -21 -5 -38 -10 -38 -6 0 -27
15 -48 34 -35 33 -37 38 -42 110 -6 85 4 96 39 47z m5140 -67 c29 -37 26 -68
-9 -98 -32 -26 -50 -26 -83 2 -11 10 -33 15 -57 14 -31 -2 -46 3 -65 22 -42
42 -32 64 23 49 16 -4 20 -8 11 -13 -8 -6 -2 -13 19 -24 39 -20 42 -20 42 2 1
19 44 94 54 93 18 -2 26 0 25 7 -4 23 4 23 11 0 4 -15 18 -39 29 -54z m-4189
52 c0 -8 -4 -18 -10 -21 -5 -3 -10 3 -10 14 0 12 5 21 10 21 6 0 10 -6 10 -14z
m1384 -20 c-22 -35 -130 -54 -195 -36 -25 7 -31 5 -47 -18 -10 -15 -24 -42
-31 -59 -8 -18 -17 -33 -22 -33 -5 0 -9 -7 -9 -14 0 -8 -11 -36 -25 -62 -14
-26 -25 -55 -25 -65 0 -10 -13 -25 -29 -34 -25 -12 -35 -13 -67 -1 -46 15 -54
31 -19 40 27 7 35 26 10 26 -8 0 -15 5 -15 11 0 5 4 7 10 4 6 -3 7 1 4 9 -3 9
-1 16 5 16 6 0 11 5 11 11 0 15 22 34 40 34 11 0 16 13 18 45 1 25 3 54 5 65
1 11 -5 21 -15 23 -12 2 -23 -8 -34 -35 -9 -21 -21 -45 -25 -53 -35 -57 -46
-70 -58 -70 -9 0 -11 -7 -7 -23 7 -30 -43 -93 -81 -100 -16 -3 -45 -10 -65
-15 -50 -13 -49 0 3 57 22 24 37 36 34 25 -4 -10 2 -5 11 11 10 17 19 40 20
51 4 35 34 85 46 78 7 -4 8 -3 4 4 -4 6 0 25 9 42 l16 30 -55 0 c-63 0 -70 -5
-118 -86 -18 -31 -41 -68 -50 -83 -9 -14 -17 -33 -16 -41 0 -9 1 -10 4 -3 3 7
12 9 20 6 8 -3 14 0 14 6 0 6 6 11 14 11 19 0 32 29 35 75 1 15 3 17 10 6 12
-18 0 -58 -32 -108 -31 -50 -36 -53 -83 -57 -19 -2 -49 -13 -64 -25 -69 -51
-66 -14 7 80 31 41 69 98 84 127 16 29 47 75 70 102 l42 50 329 0 328 0 -16
-24z m1636 -102 c47 -70 90 -134 95 -143 6 -9 18 -28 27 -42 10 -14 15 -29 11
-33 -3 -3 -32 -6 -63 -6 -64 0 -79 11 -83 59 -1 17 -5 31 -9 31 -5 0 -8 6 -8
14 0 8 -7 17 -16 20 -9 3 -14 12 -11 19 2 6 -2 17 -9 22 -7 6 -14 21 -16 35
-2 19 1 24 15 22 25 -4 21 13 -13 48 -30 31 -50 38 -50 19 0 -8 -4 -8 -14 0
-13 11 -47 5 -45 -8 0 -10 62 -126 100 -188 59 -96 59 -93 -25 -93 l-72 0 -21
48 c-30 69 -43 112 -33 112 4 0 7 8 5 18 -14 71 -14 81 3 85 15 4 15 5 -2 12
-11 5 -26 3 -37 -4 -16 -9 -19 -8 -19 5 0 8 -4 12 -10 9 -5 -3 -18 -1 -29 5
-11 5 -22 7 -24 2 -5 -7 32 -127 47 -150 4 -7 5 -19 2 -27 -3 -9 1 -15 10 -15
8 0 18 -8 21 -17 4 -10 16 -30 27 -45 11 -15 18 -30 15 -32 -2 -2 -32 -6 -67
-8 l-62 -4 -22 45 c-11 25 -29 62 -38 81 -10 19 -28 65 -40 103 -23 67 -36 79
-68 58 -11 -7 -11 -9 2 -14 20 -8 46 -71 46 -111 0 -21 -3 -27 -9 -18 -6 10
-10 7 -13 -12 -3 -14 -1 -26 3 -26 5 0 9 -4 9 -10 0 -23 -18 -7 -49 44 -18 30
-45 63 -59 72 -37 24 -91 81 -84 88 3 4 -4 15 -16 26 -12 12 -22 23 -22 25 0
3 143 5 318 5 l317 0 85 -126z m570 106 c0 -5 -5 -10 -11 -10 -5 0 -7 5 -4 10
3 6 8 10 11 10 2 0 4 -4 4 -10z m-4070 -35 c7 -8 15 -35 18 -60 2 -25 7 -45
11 -45 3 0 21 9 39 20 41 25 69 25 77 1 9 -30 -5 -71 -24 -71 -32 0 -31 -13 4
-52 39 -42 45 -74 16 -83 -22 -7 -62 7 -80 29 -24 29 -31 17 -28 -46 l2 -63
-30 0 c-34 0 -55 31 -55 84 l0 33 -34 -26 c-19 -14 -44 -26 -56 -26 -44 0 -37
69 10 97 17 9 30 20 30 24 0 3 -18 11 -40 18 -49 15 -71 48 -44 68 23 17 36
16 81 -2 19 -8 38 -15 40 -15 3 0 4 19 2 43 -4 76 -1 87 25 87 13 0 29 -7 36
-15z m1724 -42 l39 -8 -42 -44 c-47 -49 -80 -107 -75 -134 1 -11 4 -20 6 -20
2 -1 17 -12 35 -25 38 -26 41 -27 82 -6 18 9 34 14 36 13 1 -2 -2 -20 -9 -39
-10 -31 -15 -35 -51 -38 -35 -2 -38 -1 -23 11 15 12 11 15 -35 30 -77 24 -98
27 -118 17 -31 -17 -29 16 5 69 18 28 41 76 51 107 18 57 45 97 55 82 3 -4 23
-11 44 -15z m-454 -1 c0 -3 -12 -21 -26 -40 -19 -24 -29 -30 -34 -21 -8 13 7
59 24 71 10 6 36 0 36 -10z m3500 8 c0 -5 -4 -10 -10 -10 -5 0 -10 5 -10 10 0
6 5 10 10 10 6 0 10 -4 10 -10z m-1375 -20 c3 -5 2 -10 -4 -10 -5 0 -13 5 -16
10 -3 6 -2 10 4 10 5 0 13 -4 16 -10z m-2907 -186 c12 -23 27 -44 35 -47 18
-7 87 -139 87 -166 0 -37 -28 -12 -35 32 -8 43 -29 74 -40 58 -3 -6 -11 -8
-18 -6 -7 2 -25 6 -41 10 -15 3 -26 9 -22 12 3 3 0 13 -7 21 -9 12 -9 16 1 19
13 5 17 43 5 43 -8 0 -9 39 -3 105 l2 30 7 -35 c4 -19 17 -54 29 -76z m1307
36 c-16 -17 -36 -30 -44 -30 -10 0 -5 8 13 23 16 12 34 27 40 33 6 7 13 10 15
8 3 -2 -8 -18 -24 -34z m-2261 -59 c18 -16 60 -90 54 -96 -10 -10 -71 29 -86
55 -9 16 -22 30 -29 30 -14 0 -35 34 -27 43 8 8 66 -13 88 -32z m3480 -11
c-10 -4 -21 -6 -24 -3 -8 7 24 22 34 16 5 -4 1 -10 -10 -13z m-149 -18 c-3 -3
-11 0 -18 7 -9 10 -8 11 6 5 10 -3 15 -9 12 -12z m2045 -62 c0 -27 -9 -49 -37
-84 -24 -31 -40 -43 -46 -37 -7 7 -6 15 3 26 8 10 9 15 1 15 -6 0 -11 -4 -11
-8 0 -5 -6 -9 -14 -9 -17 0 -15 8 11 67 23 52 53 83 53 56 0 -9 5 -16 11 -16
7 0 9 10 4 27 -5 23 -4 25 9 14 9 -8 16 -29 16 -51z m-5125 -115 c9 -33 15
-76 13 -95 l-3 -35 -22 36 c-13 20 -23 48 -23 62 0 14 -4 28 -9 31 -4 3 -8 29
-8 57 l0 52 18 -24 c10 -13 25 -51 34 -84z m71 80 c4 -8 3 -32 -1 -53 -7 -36
-8 -36 -17 -12 -6 16 -6 26 1 28 16 5 13 22 -4 22 -9 0 -12 6 -9 15 8 19 23
19 30 0z m1152 -195 c-2 -159 -4 -180 -18 -174 -8 3 -33 8 -55 11 -34 4 -46 1
-74 -23 -18 -15 -43 -48 -55 -73 -17 -36 -26 -46 -46 -46 -25 0 -25 1 -33 120
-4 66 -5 126 -2 133 2 6 17 12 32 12 36 0 118 43 161 83 18 17 43 55 57 84 13
29 26 53 29 53 3 0 5 -81 4 -180z m797 -185 l0 -350 -255 0 -254 0 -7 31 c-15
78 -67 124 -122 110 -16 -4 -34 2 -57 19 -19 14 -40 25 -47 25 -10 0 -13 24
-14 98 -1 194 -1 298 0 360 l1 62 378 -2 377 -3 0 -350z m1787 112 c4 -299 4
-297 -34 -297 -16 0 -42 -7 -59 -15 -35 -19 -85 -85 -94 -125 l-6 -28 -285 -1
-285 -1 2 328 c1 181 -1 334 -5 341 -4 6 -5 18 -2 26 4 11 70 14 384 14 l380
1 4 -243z m1014 230 c17 -7 53 -32 80 -56 l49 -44 -39 6 c-21 3 -49 16 -61 27
-12 11 -39 23 -59 27 -35 5 -63 33 -49 47 9 9 44 6 79 -7z m-2169 -39 c45 -16
133 -87 133 -107 0 -3 -114 -6 -254 -6 -286 0 -278 -3 -194 70 85 74 192 89
315 43z m-2393 -47 c13 -21 -90 -81 -140 -81 l-27 0 24 26 c48 53 126 83 143
55z m4028 -38 c-3 -16 -7 -22 -10 -15 -4 13 4 42 11 42 2 0 2 -12 -1 -27z
m903 -3 c-3 -5 -10 -10 -16 -10 -5 0 -9 5 -9 10 0 6 7 10 16 10 8 0 12 -4 9
-10z m-5219 -58 c-7 -6 -45 39 -45 53 0 6 11 -3 25 -19 14 -15 23 -31 20 -34z
m5072 23 c-3 -14 -1 -25 4 -25 5 0 6 -4 3 -10 -12 -19 -25 -10 -25 18 0 26 7
42 18 42 2 0 2 -11 0 -25z m-4606 -42 c18 -40 22 -73 26 -191 5 -164 -4 -194
-37 -121 -12 24 -21 36 -21 27 0 -11 -8 -18 -19 -18 -15 0 -19 11 -25 61 -9
92 -7 209 5 252 15 55 44 51 71 -10z m2352 1 c3 -9 6 -25 6 -36 0 -17 -4 -19
-22 -12 -13 5 -129 9 -258 10 -194 1 -235 3 -238 15 -2 12 24 14 155 11 137
-2 212 3 344 27 4 0 10 -6 13 -15z m1311 -2 c0 -18 -20 -15 -23 4 -3 10 1 15
10 12 7 -3 13 -10 13 -16z m965 -27 c0 -8 -4 -15 -10 -15 -5 0 -7 7 -4 15 4 8
8 15 10 15 2 0 4 -7 4 -15z m-2705 -85 c8 -34 12 -35 60 -16 36 15 45 30 23
39 -7 3 4 6 25 6 20 1 37 -2 38 -6 1 -5 2 -95 3 -200 l1 -193 -87 0 -86 0 -4
173 c-3 182 -1 227 12 227 5 0 11 -13 15 -30z m251 -5 c11 29 24 35 78 35 l49
0 -9 -37 c-5 -21 -9 -90 -9 -153 -1 -63 -2 -136 -3 -162 l-2 -48 -84 0 -83 0
2 193 c1 105 3 196 3 201 1 5 13 -4 27 -19 23 -27 25 -28 31 -10z m-2397 -19
c39 -20 106 -126 81 -126 -6 0 -10 3 -10 8 0 12 -47 62 -59 62 -6 0 -11 4 -11
9 0 5 -9 11 -20 14 -15 4 -20 0 -20 -14 0 -30 -17 -22 -24 12 -10 51 10 62 63
35z m982 -26 c20 -11 27 -50 9 -50 -6 0 -19 5 -29 11 -28 18 -65 3 -82 -33
-18 -41 -39 -48 -39 -14 0 36 19 72 44 84 28 14 73 15 97 2z m2788 -16 c17
-14 36 -42 42 -63 11 -36 12 -37 59 -37 55 0 100 -25 100 -55 0 -20 -1 -20
-31 5 -17 14 -43 27 -57 27 -34 2 -74 5 -87 7 -6 1 -21 20 -34 41 -15 23 -30
37 -38 34 -7 -3 -16 2 -19 11 -3 9 -10 14 -14 11 -10 -6 -40 22 -40 36 0 5 20
9 44 9 33 0 52 -7 75 -26z m-3364 -23 c-3 -5 -1 -12 5 -16 14 -9 12 -74 -4
-128 -19 -64 -74 -137 -102 -137 -25 0 -40 15 -24 25 5 3 10 16 10 29 0 12 5
27 11 33 7 7 6 12 -5 16 -11 4 -13 1 -9 -10 4 -11 2 -14 -5 -9 -15 9 -16 36
-1 36 6 0 8 7 5 15 -3 9 -2 23 3 33 5 9 15 32 22 51 7 18 26 42 43 52 33 20
61 25 51 10z m365 -81 c0 -5 -7 -10 -16 -10 -8 0 -12 5 -9 10 3 6 10 10 16 10
5 0 9 -4 9 -10z m-680 -45 c0 -16 -9 -19 -34 -9 -25 9 -19 24 9 24 16 0 25 -6
25 -15z m996 -40 c47 -39 55 -41 84 -23 15 9 22 10 31 1 17 -17 49 -92 41 -96
-4 -1 -80 -1 -169 1 l-163 4 0 24 c0 18 7 25 28 30 36 9 52 22 52 44 0 14 33
47 49 49 2 1 23 -15 47 -34z m2514 -13 c0 -16 34 -55 42 -47 1 2 4 -8 4 -21 1
-13 -2 -21 -7 -18 -5 3 -9 11 -9 19 0 16 -27 28 -35 15 -10 -17 -25 -11 -34
12 -4 12 -10 17 -13 12 -4 -5 3 -20 14 -34 15 -18 21 -21 28 -11 6 11 9 11 16
-1 14 -24 51 -31 58 -12 3 9 3 20 0 26 -4 6 -1 8 7 6 8 -3 13 -13 13 -22 -1
-9 2 -16 8 -16 5 0 7 -4 4 -9 -8 -12 -241 -8 -240 4 2 37 20 64 60 88 25 15
42 22 38 15 -4 -7 1 -5 11 4 21 19 35 15 35 -10z m496 -20 c11 -8 75 -122 68
-122 -12 0 -45 40 -67 83 -24 45 -25 55 -1 39z m-244 -139 c20 -13 33 -31 41
-60 13 -49 29 -54 53 -17 9 14 30 32 45 40 29 15 144 20 121 5 -7 -4 -24 -6
-37 -4 -31 7 -87 -22 -113 -56 -19 -26 -25 -28 -74 -25 -29 2 -65 6 -80 10
-23 5 -31 0 -62 -42 -19 -27 -36 -54 -36 -59 0 -21 -37 -13 -55 11 -24 32 -40
30 -62 -6 -9 -16 -21 -30 -25 -30 -4 0 -8 -8 -9 -17 0 -15 -2 -14 -11 4 -8 16
-6 30 8 60 26 51 63 57 95 14 34 -46 49 -40 49 19 0 59 19 110 54 145 30 29
57 32 98 8z m-2823 -119 c29 -24 31 -31 31 -90 0 -35 -4 -64 -9 -64 -17 0 -21
17 -12 42 6 17 3 30 -12 53 -29 41 -38 46 -69 41 -35 -7 -38 16 -5 32 33 16
43 14 76 -14z m-196 -2 c19 -21 40 -73 32 -80 -3 -4 -18 8 -33 25 -17 20 -40
34 -64 38 -37 7 -45 15 -31 28 14 14 80 7 96 -11z m2690 -159 c4 -3 -14 -14
-40 -22 -37 -12 -52 -24 -65 -49 -24 -48 -31 -52 -23 -12 8 39 30 68 60 81 25
10 60 11 68 2z m117 -23 c0 -5 -7 -10 -15 -10 -8 0 -15 5 -15 10 0 6 7 10 15
10 8 0 15 -4 15 -10z"/>
<path d="M8033 8123 c-33 -6 -47 -28 -33 -52 8 -16 20 -21 54 -21 25 0 73 -9
108 -20 105 -33 128 -23 94 39 -22 39 -146 69 -223 54z"/>
<path d="M8078 7919 c-28 -16 -25 -93 4 -113 28 -20 33 -20 52 0 20 20 20 73
0 102 -17 24 -30 27 -56 11z"/>
<path d="M7633 7878 c-21 -26 -24 -70 -8 -94 18 -29 46 -31 68 -6 20 22 21 38
6 81 -12 33 -47 43 -66 19z"/>
<path d="M3490 7789 c-19 -5 -56 -19 -82 -31 -37 -17 -48 -27 -48 -45 0 -25
19 -30 38 -10 7 6 30 12 50 13 20 0 58 4 85 8 37 6 47 11 47 26 0 17 -35 52
-50 49 -3 0 -21 -5 -40 -10z"/>
<path d="M6788 7809 c-51 -19 -21 -54 36 -44 19 4 50 2 69 -4 36 -12 87 -6 87
11 0 27 -145 55 -192 37z"/>
<path d="M6380 7724 c-14 -7 -38 -14 -53 -14 -26 0 -28 -3 -25 -32 3 -37 2
-37 77 -9 64 24 74 32 65 54 -7 20 -29 20 -64 1z"/>
<path d="M6846 7640 c-25 -8 -74 -54 -76 -70 0 -3 9 -11 19 -17 17 -11 24 -8
50 17 32 33 66 38 97 15 25 -19 64 -19 64 -1 0 21 -54 57 -92 61 -18 2 -46 0
-62 -5z"/>
<path d="M7274 7600 c-14 -22 -24 -46 -20 -55 7 -19 26 -20 26 -1 0 8 14 28
30 46 35 38 38 50 10 50 -12 0 -30 -16 -46 -40z"/>
<path d="M6403 7557 c-34 -13 -83 -51 -83 -66 0 -5 7 -14 15 -21 12 -10 21 -7
50 19 20 17 37 31 39 31 2 0 20 -7 39 -15 45 -18 57 -19 57 -2 0 17 -39 53
-65 60 -11 3 -34 0 -52 -6z"/>
<path d="M6586 7534 c-3 -9 -6 -28 -6 -44 0 -16 -5 -51 -12 -79 -13 -59 -2
-81 42 -81 59 0 80 23 33 35 -45 11 -52 21 -42 63 11 49 11 109 0 116 -5 3
-12 -1 -15 -10z"/>
<path d="M6865 7311 c-9 -16 -163 -63 -232 -71 -36 -5 -69 -12 -74 -17 -17
-17 30 -74 78 -95 55 -24 120 -20 182 11 31 16 46 34 71 85 18 36 30 72 27 81
-7 16 -42 21 -52 6z m-18 -89 c-18 -26 -44 -53 -58 -59 -34 -18 -105 -16 -144
3 -43 20 -54 44 -20 44 33 0 217 48 229 60 5 5 13 7 18 4 5 -3 -6 -27 -25 -52z"/>
<path d="M8636 7846 c-28 -37 -33 -75 -14 -94 16 -16 28 -15 28 1 0 38 23 89
46 99 32 15 30 28 -5 28 -21 0 -36 -9 -55 -34z"/>
<path d="M3476 7538 c-31 -44 -13 -128 28 -128 43 0 64 101 28 133 -25 23 -38
21 -56 -5z"/>
<path d="M3950 7540 c-17 -31 -8 -101 13 -114 15 -9 23 -6 43 17 29 34 30 56
3 91 -25 31 -44 33 -59 6z"/>
<path d="M2877 7463 c-14 -13 -7 -23 16 -23 35 0 65 -27 78 -71 14 -43 32 -47
37 -7 6 52 -100 133 -131 101z"/>
<path d="M2900 7382 c0 -12 19 -26 26 -19 2 2 -2 10 -11 17 -9 8 -15 8 -15 2z"/>
<path d="M3500 7145 c0 -45 70 -124 132 -149 53 -22 91 -20 148 9 54 27 76 54
86 103 l7 32 -69 -6 c-45 -4 -101 -1 -162 10 -117 20 -142 20 -142 1z m218
-41 c79 -6 92 -9 92 -24 0 -29 -57 -70 -96 -70 -44 0 -69 12 -116 58 -47 44
-48 56 -5 48 17 -3 74 -9 125 -12z"/>
<path d="M8210 6940 c-11 -7 -6 -10 20 -10 26 0 31 3 20 10 -8 5 -17 10 -20
10 -3 0 -12 -5 -20 -10z"/>
<path d="M6060 7000 c-24 -15 -1 -27 63 -33 46 -4 57 -3 57 9 0 28 -87 45
-120 24z"/>
<path d="M5547 6850 c-26 -16 -47 -36 -47 -44 0 -19 23 -33 28 -18 2 7 12 12
22 12 27 0 74 46 66 65 -8 21 -15 19 -69 -15z"/>
<path d="M6105 6858 c-30 -16 -55 -50 -55 -75 0 -30 20 -40 27 -14 6 23 50 51
81 51 10 0 27 -7 38 -15 27 -20 34 -19 34 9 0 46 -74 72 -125 44z"/>
<path d="M5910 6743 c-23 -9 -30 -26 -18 -40 8 -10 14 -10 24 -2 10 8 20 6 40
-10 36 -28 46 -26 38 7 -12 49 -37 62 -84 45z"/>
<path d="M5598 6725 c-30 -17 -72 -80 -63 -95 11 -18 27 -11 65 32 l37 42 51
-21 c54 -23 71 -17 50 16 -25 40 -90 52 -140 26z"/>
<path d="M5990 6589 c-63 -16 -143 -38 -177 -49 -34 -11 -69 -20 -79 -20 -14
0 -16 -8 -12 -55 4 -51 9 -59 59 -109 70 -69 92 -80 165 -80 80 0 118 23 172
103 40 60 42 66 42 140 0 78 -10 102 -39 100 -9 -1 -68 -15 -131 -30z m94 -18
c8 -12 -67 -79 -96 -86 -40 -10 -191 -1 -195 12 -5 13 32 25 127 43 36 7 76
19 90 26 29 15 66 18 74 5z m-56 -197 c18 -8 32 -19 32 -23 0 -30 -179 -44
-216 -17 -28 21 -7 37 63 46 88 11 88 11 121 -6z"/>
<path d="M5490 6478 c0 -18 7 -31 21 -38 26 -14 38 -4 17 13 -9 6 -20 21 -26
32 -11 19 -11 18 -12 -7z"/>
<path d="M5193 6479 c-7 -7 -13 -22 -13 -33 0 -19 1 -19 20 2 12 12 23 22 26
22 13 0 50 -25 62 -42 7 -10 17 -18 23 -18 15 0 10 46 -6 60 -22 18 -97 24
-112 9z"/>
<path d="M8633 6638 c-24 -11 -43 -26 -43 -33 0 -6 -11 -17 -25 -23 -14 -6
-25 -18 -25 -26 0 -17 27 -29 35 -15 4 5 36 28 71 50 93 59 83 94 -13 47z"/>
<path d="M8991 6584 c0 -11 3 -14 6 -6 3 7 2 16 -1 19 -3 4 -6 -2 -5 -13z"/>
<path d="M8180 5859 c0 -5 5 -7 10 -4 6 3 10 8 10 11 0 2 -4 4 -10 4 -5 0 -10
-5 -10 -11z"/>
<path d="M7958 5593 c7 -3 16 -2 19 1 4 3 -2 6 -13 5 -11 0 -14 -3 -6 -6z"/>
<path d="M7655 5490 c-3 -6 1 -7 9 -4 18 7 21 14 7 14 -6 0 -13 -4 -16 -10z"/>
<path d="M6960 5400 c-85 -4 -157 -8 -160 -9 -15 -5 35 -22 82 -27 29 -3 56
-7 59 -9 3 -2 24 3 47 10 23 8 47 13 54 10 21 -8 310 -12 343 -5 24 5 18 8
-37 14 -37 5 -75 5 -84 2 -23 -9 -145 5 -138 15 3 5 2 8 -3 7 -4 -1 -78 -5
-163 -8z"/>
<path d="M3470 6165 c-16 -19 -5 -47 17 -43 11 2 18 12 18 27 0 29 -17 37 -35
16z"/>
<path d="M6554 6580 c0 -11 4 -20 8 -20 4 0 8 9 8 20 0 11 -4 20 -8 20 -4 0
-8 -9 -8 -20z"/>
<path d="M6516 6581 c-4 -7 -5 -15 -2 -18 9 -9 19 4 14 18 -4 11 -6 11 -12 0z"/>
<path d="M6633 6575 c1 -12 10 -20 22 -20 16 0 21 -8 23 -37 2 -21 7 -38 12
-38 13 0 24 46 15 60 -4 6 -1 18 6 27 12 14 9 15 -29 12 -23 -3 -44 0 -47 6
-2 5 -4 1 -2 -10z"/>
<path d="M6740 6555 c0 -8 -4 -15 -10 -15 -5 0 -10 -9 -10 -20 0 -23 15 -27
24 -5 3 8 13 15 21 15 9 0 14 -4 10 -9 -6 -11 33 -36 43 -27 3 3 0 6 -6 6 -7
0 -12 6 -12 13 0 14 -41 57 -53 57 -4 0 -7 -7 -7 -15z"/>
<path d="M6460 6524 c-17 -15 -30 -35 -30 -47 1 -21 2 -20 21 5 18 24 22 26
35 14 8 -8 14 -20 14 -27 0 -8 5 -8 17 2 11 9 14 10 9 2 -5 -9 -2 -11 8 -7 20
8 20 20 1 28 -8 3 -15 14 -15 25 0 30 -27 32 -60 5z"/>
<path d="M6620 6516 c0 -7 6 -19 14 -25 11 -9 12 -6 8 14 -5 26 -22 35 -22 11z"/>
<path d="M6773 6473 c9 -2 23 -2 30 0 6 3 -1 5 -18 5 -16 0 -22 -2 -12 -5z"/>
<path d="M6445 6430 c-3 -5 -1 -10 4 -10 6 0 11 5 11 10 0 6 -2 10 -4 10 -3 0
-8 -4 -11 -10z"/>
<path d="M7557 6420 c-3 -11 -1 -20 4 -20 5 0 9 2 9 4 0 2 3 11 6 20 3 9 2 16
-4 16 -5 0 -12 -9 -15 -20z"/>
<path d="M7520 6419 c0 -5 5 -7 10 -4 6 3 10 8 10 11 0 2 -4 4 -10 4 -5 0 -10
-5 -10 -11z"/>
<path d="M7597 6309 c6 -22 23 -26 23 -5 0 8 -6 16 -14 19 -10 4 -12 0 -9 -14z"/>
<path d="M7485 6310 c-3 -5 1 -10 9 -10 8 0 18 5 21 10 3 6 -1 10 -9 10 -8 0
-18 -4 -21 -10z"/>
<path d="M7490 6250 c0 -5 7 -10 16 -10 8 0 12 5 9 10 -3 6 -10 10 -16 10 -5
0 -9 -4 -9 -10z"/>
<path d="M7575 6190 c3 -5 10 -10 16 -10 5 0 9 5 9 10 0 6 -7 10 -16 10 -8 0
-12 -4 -9 -10z"/>
<path d="M7196 6173 c-6 -14 -5 -15 5 -6 7 7 10 15 7 18 -3 3 -9 -2 -12 -12z"/>
<path d="M7223 6162 c-7 -5 -9 -13 -4 -21 7 -11 11 -9 20 8 12 21 6 27 -16 13z"/>
<path d="M7303 6073 c3 -39 27 -42 27 -4 0 20 -5 31 -14 31 -10 0 -14 -9 -13
-27z"/>
<path d="M7382 6050 c0 -19 2 -27 5 -17 2 9 2 25 0 35 -3 9 -5 1 -5 -18z"/>
<path d="M7170 5990 c0 -5 7 -10 15 -10 8 0 15 5 15 10 0 6 -7 10 -15 10 -8 0
-15 -4 -15 -10z"/>
<path d="M7045 5930 c-3 -5 -1 -10 4 -10 6 0 11 5 11 10 0 6 -2 10 -4 10 -3 0
-8 -4 -11 -10z"/>
<path d="M7492 5810 c0 -19 2 -27 5 -17 2 9 2 25 0 35 -3 9 -5 1 -5 -18z"/>
<path d="M6980 5790 c-13 -25 -5 -40 20 -40 10 0 22 4 25 10 7 12 -12 50 -25
50 -5 0 -14 -9 -20 -20z"/>
<path d="M7300 5800 c0 -5 5 -10 11 -10 5 0 7 5 4 10 -3 6 -8 10 -11 10 -2 0
-4 -4 -4 -10z"/>
<path d="M7200 5784 c0 -8 5 -12 10 -9 6 3 10 10 10 16 0 5 -4 9 -10 9 -5 0
-10 -7 -10 -16z"/>
<path d="M7511 5784 c0 -11 3 -14 6 -6 3 7 2 16 -1 19 -3 4 -6 -2 -5 -13z"/>
<path d="M6930 5775 c0 -8 7 -15 15 -15 8 0 15 7 15 15 0 8 -7 15 -15 15 -8 0
-15 -7 -15 -15z"/>
<path d="M7070 5758 c0 -4 11 -8 25 -8 14 0 25 4 25 8 0 4 -11 8 -25 8 -14 0
-25 -4 -25 -8z"/>
<path d="M6961 5724 c0 -11 3 -14 6 -6 3 7 2 16 -1 19 -3 4 -6 -2 -5 -13z"/>
<path d="M6686 5721 c-4 -7 -5 -15 -2 -18 9 -9 19 4 14 18 -4 11 -6 11 -12 0z"/>
<path d="M3860 6173 c0 -9 40 -71 40 -62 0 3 -7 20 -16 37 -15 31 -24 40 -24
25z"/>
<path d="M3740 6077 c0 -1 9 -20 20 -42 22 -43 26 -36 9 14 -6 17 -15 31 -20
31 -5 0 -9 -1 -9 -3z"/>
<path d="M3350 6010 c0 -5 5 -10 11 -10 5 0 7 5 4 10 -3 6 -8 10 -11 10 -2 0
-4 -4 -4 -10z"/>
<path d="M3447 5883 c-12 -12 -7 -22 8 -17 8 4 15 10 15 15 0 11 -14 12 -23 2z"/>
<path d="M3461 5851 c-11 -7 -7 -13 18 -26 36 -18 51 -13 35 13 -13 20 -34 25
-53 13z"/>
<path d="M3583 5673 c-27 -18 -29 -35 -7 -68 19 -30 49 -32 64 -6 15 29 12 56
-8 74 -22 20 -21 20 -49 0z"/>
<path d="M3012 5550 c0 -14 2 -19 5 -12 2 6 2 18 0 25 -3 6 -5 1 -5 -13z"/>
<path d="M3680 5480 c-19 -4 -28 -8 -20 -10 24 -4 54 1 65 11 10 10 7 10 -45
-1z"/>
<path d="M3050 5429 c0 -11 4 -18 10 -14 5 3 7 12 3 20 -7 21 -13 19 -13 -6z"/>
<path d="M3498 5433 c7 -3 16 -2 19 1 4 3 -2 6 -13 5 -11 0 -14 -3 -6 -6z"/>
<path d="M3181 5258 c8 -9 31 -12 68 -9 l56 5 -45 7 c-72 12 -93 11 -79 -3z"/>
<path d="M3520 4900 c0 -5 5 -10 10 -10 6 0 10 5 10 10 0 6 -4 10 -10 10 -5 0
-10 -4 -10 -10z"/>
<path d="M6020 4596 c18 -23 91 -96 116 -117 10 -8 6 2 -9 21 -28 36 -67 75
-102 100 -19 14 -19 14 -5 -4z"/>
<path d="M4240 4608 c0 -9 5 -20 10 -23 13 -8 13 5 0 25 -8 13 -10 13 -10 -2z"/>
<path d="M4203 4562 c-24 -2 -43 -8 -43 -13 0 -6 9 -7 20 -4 30 10 62 -4 56
-23 -3 -9 -1 -24 4 -32 8 -13 10 -12 10 3 0 10 5 15 11 12 6 -4 8 -12 6 -19
-3 -6 1 -20 9 -31 8 -10 14 -26 14 -36 0 -9 8 -23 17 -30 15 -12 16 -12 8 6
-4 11 -11 45 -15 75 -13 93 -18 98 -97 92z"/>
<path d="M4110 4540 c0 -5 4 -10 9 -10 6 0 13 5 16 10 3 6 -1 10 -9 10 -9 0
-16 -4 -16 -10z"/>
<path d="M5725 4456 c-16 -7 -47 -29 -69 -48 -33 -29 -39 -40 -42 -83 -7 -81
21 -143 80 -182 52 -36 92 -41 160 -22 54 15 115 74 126 124 19 83 14 102 -42
161 -52 53 -55 55 -118 60 -44 3 -75 0 -95 -10z m155 -49 c59 -29 73 -59 63
-134 -8 -55 -10 -59 -58 -90 -54 -36 -117 -45 -132 -19 -4 8 -24 21 -44 29
-94 39 -70 201 34 235 40 13 79 7 137 -21z"/>
<path d="M5700 4330 c0 -22 35 -46 45 -30 3 6 3 19 0 30 -8 26 -45 27 -45 0z"/>
<path d="M5854 4335 c-7 -18 3 -35 22 -35 8 0 14 10 14 25 0 27 -27 35 -36 10z"/>
<path d="M5730 4261 c0 -23 40 -51 73 -51 24 0 72 42 61 53 -3 3 -19 -3 -34
-15 -22 -16 -32 -18 -48 -9 -11 6 -22 17 -26 26 -8 21 -26 19 -26 -4z"/>
<path d="M7347 4423 c-9 -14 8 -69 19 -63 10 6 7 51 -6 63 -4 5 -10 5 -13 0z"/>
<path d="M7277 4103 c-10 -10 -8 -25 2 -18 5 3 11 -7 13 -22 3 -23 6 -25 12
-11 8 18 -16 63 -27 51z"/>
<path d="M4915 4290 c-3 -5 -1 -10 4 -10 6 0 11 5 11 10 0 6 -2 10 -4 10 -3 0
-8 -4 -11 -10z"/>
<path d="M6631 4273 c-1 -7 -8 -13 -16 -13 -18 0 -19 -20 -2 -42 10 -15 14
-15 25 -2 11 12 10 14 -5 15 -16 0 -16 1 -2 7 12 5 14 13 8 27 -4 11 -8 14 -8
8z"/>
<path d="M3443 4337 c-10 -6 -21 -15 -25 -21 -13 -18 -9 -63 6 -75 24 -20 77
-9 99 21 19 25 19 29 4 51 -18 28 -56 39 -84 24z"/>
<path d="M8340 4085 c-11 -13 -10 -14 4 -9 9 3 16 10 16 15 0 13 -6 11 -20 -6z"/>
<path d="M4639 3915 l-27 -15 5 -152 c2 -86 9 -158 15 -165 7 -9 42 -13 114
-13 94 0 104 2 114 21 8 13 10 70 7 167 -5 142 -6 147 -28 159 -33 17 -167 16
-200 -2z m91 -74 c0 -45 -3 -48 -45 -52 -29 -4 -30 -2 -33 38 -3 37 0 42 20
46 55 10 58 9 58 -32z m97 -8 c2 -48 -2 -53 -39 -46 -20 4 -28 12 -33 39 -8
45 0 56 38 52 30 -3 32 -6 34 -45z m-97 -152 c0 -67 -1 -69 -27 -74 -50 -9
-70 15 -37 47 8 9 11 16 6 16 -11 0 -24 58 -16 71 3 5 21 9 40 9 l34 0 0 -69z
m103 62 c2 -5 2 -36 -1 -70 l-4 -63 -38 0 -38 0 0 70 -1 70 39 0 c21 0 41 -3
43 -7z"/>
<path d="M5060 3921 l-94 -6 -3 -153 c-2 -86 1 -161 7 -171 8 -16 23 -18 110
-19 76 0 104 3 115 15 23 22 22 305 -1 327 -8 9 -21 15 -27 14 -7 -1 -55 -4
-107 -7z m18 -95 c-3 -40 -4 -41 -40 -44 l-38 -3 0 50 c0 47 2 50 28 53 40 5
53 -9 50 -56z m97 9 c0 -33 -4 -40 -25 -45 -47 -12 -60 8 -44 68 5 19 12 23
38 20 29 -3 31 -6 31 -43z m-105 -161 l0 -75 -32 3 -33 3 -3 72 -3 72 28 3
c15 2 31 2 36 0 4 -2 7 -37 7 -78z m110 7 c0 -39 -4 -72 -9 -75 -5 -3 -23 -3
-40 0 -31 6 -31 7 -31 69 0 34 3 65 7 68 3 4 21 7 40 7 l33 0 0 -69z"/>
<path d="M6758 3919 c-27 -10 -28 -13 -29 -87 -3 -168 2 -236 19 -249 10 -9
51 -13 114 -13 84 0 99 3 107 18 15 28 17 310 2 325 -15 15 -177 20 -213 6z
m80 -85 c3 -39 1 -42 -29 -48 -18 -3 -33 -5 -35 -4 -3 3 -7 67 -5 86 1 9 12
12 34 10 30 -3 32 -6 35 -44z m100 8 c5 -50 -2 -59 -37 -54 -29 4 -31 7 -31
49 0 44 0 44 33 41 28 -3 32 -7 35 -36z m3 -162 c-2 -36 -4 -66 -6 -68 -1 -2
-15 -4 -31 -5 -29 -2 -29 -2 -32 62 -4 84 -1 90 40 82 l33 -7 -4 -64z m-103
-2 l-3 -73 -33 -3 c-31 -3 -33 -2 -31 30 1 18 -1 52 -5 76 l-8 42 42 0 41 0
-3 -72z"/>
<path d="M6395 3910 c-4 -6 -9 -77 -12 -158 -8 -190 -13 -184 141 -180 l111 3
3 153 c1 94 -2 160 -8 172 -10 18 -21 20 -120 20 -64 0 -111 -4 -115 -10z
m100 -75 c-1 -39 -2 -40 -38 -43 -37 -3 -37 -3 -37 36 0 47 6 54 45 50 28 -3
30 -6 30 -43z m105 -6 c0 -48 -1 -51 -22 -45 -13 3 -28 6 -34 6 -12 0 -27 67
-18 82 3 4 21 8 40 8 l34 0 0 -51z m-102 -156 l3 -73 -41 0 -40 0 0 76 0 75
38 -3 37 -3 3 -72z m102 33 c0 -24 3 -57 6 -74 7 -33 -8 -42 -53 -34 -21 4
-23 9 -23 78 l0 74 35 0 c35 0 35 0 35 -44z"/>
<path d="M3656 3753 c9 -36 26 -56 20 -23 -2 14 -5 27 -6 30 -2 3 -2 8 -1 13
0 4 -4 7 -9 7 -6 0 -8 -11 -4 -27z"/>
<path d="M3675 3649 c-5 -16 -10 -18 -21 -8 -11 9 -14 6 -14 -17 0 -22 3 -25
10 -14 11 17 14 14 27 -25 9 -27 10 -25 11 28 2 60 -2 71 -13 36z"/>
<path d="M3640 3576 c0 -9 5 -16 10 -16 6 0 10 4 10 9 0 6 -4 13 -10 16 -5 3
-10 -1 -10 -9z"/>
<path d="M5719 3558 c-4 -11 -6 -121 -2 -110 2 6 11 12 19 12 30 0 32 92 2 98
-10 2 -18 2 -19 0z"/>
<path d="M5640 3411 c0 -44 2 -49 20 -44 21 6 27 29 9 35 -6 2 -11 16 -11 31
0 15 -4 27 -9 27 -5 0 -9 -22 -9 -49z"/>
<path d="M5670 3429 c0 -4 7 -20 15 -35 10 -20 15 -23 15 -11 0 9 0 19 0 22 0
3 -3 5 -6 4 -4 0 -11 5 -15 13 -5 7 -9 10 -9 7z"/>
<path d="M5840 3555 c-11 -14 -11 -21 3 -45 9 -15 17 -37 17 -48 0 -11 8 -23
18 -25 16 -4 16 -5 0 -6 -22 -1 -24 -21 -3 -21 8 0 15 -8 16 -17 0 -15 2 -15
9 2 4 11 6 43 3 70 -3 28 -6 61 -7 75 -1 30 -36 39 -56 15z"/>
<path d="M5920 3390 c0 -5 5 -10 10 -10 6 0 10 5 10 10 0 6 -4 10 -10 10 -5 0
-10 -4 -10 -10z"/>
<path d="M4570 3393 c0 -5 -14 -7 -31 -5 -22 3 -30 1 -25 -7 10 -15 73 -14 79
2 3 9 7 9 18 1 16 -13 49 -15 49 -2 0 4 -6 8 -14 8 -7 0 -28 3 -45 6 -17 4
-31 2 -31 -3z"/>
<path d="M5780 8816 c0 -8 5 -18 10 -21 6 -3 10 3 10 14 0 12 -4 21 -10 21 -5
0 -10 -6 -10 -14z"/>
<path d="M1925 8711 c-63 -38 -108 -107 -123 -190 -12 -65 0 -116 36 -157 30
-33 153 -111 247 -156 133 -63 248 -20 311 115 30 65 33 146 6 170 -42 38 -92
3 -92 -63 0 -91 -59 -150 -130 -130 -51 15 -227 118 -249 147 -40 50 -15 135
48 168 35 17 51 43 51 78 0 41 -54 50 -105 18z"/>
<path d="M9570 8679 c-30 -17 -107 -58 -170 -91 -221 -118 -255 -140 -258
-175 -4 -35 19 -63 50 -63 12 0 62 21 111 46 57 29 93 42 99 36 6 -6 -14 -57
-56 -141 -36 -72 -66 -142 -66 -156 0 -29 38 -58 72 -53 25 3 26 5 102 171
l49 107 42 0 c23 0 90 -7 149 -15 114 -16 139 -12 151 25 7 23 -8 56 -33 69
-9 5 -74 14 -144 21 -99 10 -131 17 -143 31 -19 20 -25 15 103 88 62 36 72 46
72 70 0 32 -27 61 -56 61 -10 0 -44 -14 -74 -31z"/>
<path d="M4130 8669 c0 -5 5 -7 10 -4 6 3 10 8 10 11 0 2 -4 4 -10 4 -5 0 -10
-5 -10 -11z"/>
<path d="M5605 8640 c3 -5 11 -10 16 -10 6 0 7 5 4 10 -3 6 -11 10 -16 10 -6
0 -7 -4 -4 -10z"/>
<path d="M5010 8451 c-7 -15 -6 -23 6 -35 8 -9 20 -16 25 -16 15 0 10 17 -7
24 -10 4 -13 13 -9 26 8 25 -1 26 -15 1z"/>
<path d="M5091 8444 c0 -11 3 -14 6 -6 3 7 2 16 -1 19 -3 4 -6 -2 -5 -13z"/>
<path d="M4662 8088 c-7 -7 -12 -21 -12 -33 0 -32 -20 -45 -67 -45 -32 0 -45
-5 -50 -17 -4 -10 -1 -19 6 -21 35 -12 53 -44 49 -88 -4 -49 4 -53 42 -24 34
26 56 25 92 -5 17 -14 33 -24 35 -21 2 2 -4 27 -13 54 -20 57 -11 82 32 82 12
0 25 4 29 9 8 13 -27 31 -61 31 -30 0 -53 24 -54 57 0 27 -13 36 -28 21z"/>
<path d="M5594 7975 c-6 -15 -5 -25 14 -95 l10 -35 2 35 c1 19 3 44 5 55 9 42
-18 75 -31 40z"/>
<path d="M5324 7966 c-6 -15 64 -186 81 -198 5 -4 13 -4 18 1 12 12 -3 61 -19
61 -8 0 -14 8 -14 18 0 14 2 15 10 2 19 -29 10 -2 -21 64 -31 66 -45 79 -55
52z"/>
<path d="M5575 7801 c-3 -5 -1 -12 5 -16 12 -7 30 2 30 16 0 12 -27 12 -35 0z"/>
<path d="M5125 7790 c-3 -5 -2 -10 4 -10 6 0 34 -25 63 -55 46 -48 88 -71 88
-48 0 13 -121 123 -135 123 -8 0 -17 -4 -20 -10z"/>
<path d="M2282 6634 c-23 -16 -31 -64 -11 -64 6 0 9 6 6 14 -3 8 4 18 17 24
19 8 26 6 40 -10 25 -29 28 -56 6 -68 -27 -14 -37 -13 -61 11 l-21 21 4 -23
c2 -13 17 -29 36 -40 29 -15 39 -16 70 -5 46 16 52 46 23 111 -18 40 -23 45
-53 45 -19 0 -44 -7 -56 -16z"/>
<path d="M1643 6433 c-21 -11 -38 -30 -47 -55 -9 -21 -20 -38 -25 -38 -6 0
-22 16 -37 36 -37 48 -70 44 -101 -11 -27 -47 -30 -137 -8 -200 8 -22 15 -47
15 -54 0 -28 54 -92 92 -112 44 -23 70 -58 66 -91 -6 -49 14 -246 33 -320 10
-42 19 -81 19 -87 0 -22 -16 -10 -43 34 -64 100 -179 175 -269 175 -44 0 -45
-4 -22 -81 20 -67 55 -137 89 -177 34 -40 149 -116 200 -132 68 -21 105 -42
105 -59 1 -9 21 -65 45 -126 24 -60 40 -111 35 -113 -6 -2 -29 13 -52 32 -67
58 -242 103 -282 73 -19 -14 -19 -16 -3 -59 23 -59 109 -146 178 -179 53 -27
227 -63 252 -53 18 7 39 -13 86 -83 23 -35 46 -63 51 -63 24 0 18 27 -24 94
l-45 72 42 85 c52 102 72 196 65 305 -5 86 -36 174 -62 174 -25 0 -75 -71
-106 -152 -25 -64 -30 -92 -30 -165 -1 -88 -1 -88 -20 -65 -10 13 -29 49 -40
80 -96 253 -98 267 -40 306 87 58 180 235 180 345 0 54 -24 101 -52 101 -69 0
-168 -128 -193 -249 -6 -30 -16 -56 -22 -58 -12 -4 -33 143 -33 233 0 32 -4
74 -10 93 -13 47 0 65 68 89 32 12 76 37 97 56 48 40 106 149 112 210 5 40 2
48 -26 76 l-31 32 -46 -26 c-26 -14 -48 -26 -49 -26 -1 0 -5 23 -8 51 -7 59
-30 99 -55 98 -9 0 -31 -7 -49 -16z m63 -55 c6 -20 7 -85 1 -133 -3 -30 26
-29 79 4 48 31 84 40 84 21 0 -5 -4 -10 -10 -10 -5 0 -17 -26 -26 -57 -17 -59
-43 -104 -78 -135 -23 -22 -32 -22 -40 -3 -3 8 -1 15 5 15 19 0 46 35 52 68 5
24 3 32 -8 32 -8 0 -15 -5 -15 -11 0 -6 -7 -8 -16 -5 -8 3 -13 2 -10 -3 3 -4
-8 -21 -24 -36 -16 -15 -27 -32 -24 -37 3 -5 -8 0 -24 10 -51 30 -133 113
-136 136 -1 11 -5 28 -8 36 -4 8 -9 32 -12 53 -4 31 -3 35 9 24 7 -8 22 -31
32 -52 12 -27 27 -41 47 -46 26 -7 28 -6 23 18 -3 16 3 41 15 62 40 72 71 90
84 49z m-219 -116 c-9 -82 -23 -87 -33 -9 -8 56 -1 79 22 70 14 -5 15 -16 11
-61z m389 -514 c-3 -35 -6 -81 -7 -103 0 -22 -2 -33 -5 -25 -11 30 -35 80 -39
80 -2 0 -10 3 -19 6 -9 3 -16 1 -16 -6 0 -6 4 -9 9 -6 28 18 28 -112 1 -169
-18 -37 -53 -65 -80 -65 -9 0 -8 40 3 70 3 8 8 28 11 43 4 16 11 25 17 21 8
-4 8 0 0 14 -6 12 -7 22 -2 24 5 2 11 18 13 36 3 22 20 51 53 87 27 30 53 55
58 55 5 0 7 -27 3 -62z m-459 -105 c58 -28 102 -67 103 -91 0 -7 4 -11 9 -8
14 9 74 -72 67 -89 -3 -8 -2 -15 3 -15 7 0 31 -43 31 -55 0 -9 -21 -5 -33 5
-47 39 -124 90 -135 90 -16 0 -42 24 -42 39 0 6 -14 26 -31 45 -38 44 -57 106
-33 106 2 0 29 -12 61 -27z m590 -368 c5 -46 3 -55 -11 -56 -29 -2 -34 -4 -42
-11 -34 -35 -29 60 7 114 29 44 38 35 46 -47z m10 -107 c-3 -7 -5 -2 -5 12 0
14 2 19 5 13 2 -7 2 -19 0 -25z m-43 -116 c2 -32 -1 -68 -6 -81 -7 -20 -10
-21 -25 -10 -15 13 -15 12 -4 -11 11 -24 11 -24 -3 -6 -17 22 -19 51 -10 145
l7 62 20 -22 c14 -15 20 -37 21 -77z m-375 37 c17 -6 36 -20 42 -31 6 -10 16
-17 22 -15 20 7 66 -22 118 -74 48 -48 57 -63 41 -73 -11 -7 -92 17 -92 27 0
5 9 7 20 4 21 -5 28 7 10 18 -5 3 -10 13 -10 21 0 18 -24 44 -39 44 -6 0 -11
5 -11 11 0 13 -95 2 -122 -14 -14 -9 -22 -6 -42 16 -15 16 -26 32 -26 37 0 4
-5 10 -12 12 -6 2 -8 10 -4 16 9 15 63 15 105 1z"/>
<path d="M1629 6298 c-2 -3 -6 -31 -11 -63 -2 -14 3 -21 18 -23 26 -4 55 23
48 43 -5 12 -52 49 -55 43z"/>
<path d="M1851 5704 c0 -11 3 -14 6 -6 3 7 2 16 -1 19 -3 4 -6 -2 -5 -13z"/>
<path d="M1530 5520 c0 -5 5 -10 11 -10 5 0 7 5 4 10 -3 6 -8 10 -11 10 -2 0
-4 -4 -4 -10z"/>
<path d="M1550 5490 c0 -5 5 -10 10 -10 6 0 10 5 10 10 0 6 -4 10 -10 10 -5 0
-10 -4 -10 -10z"/>
<path d="M9861 6436 c-6 -7 -16 -40 -22 -72 -17 -92 -18 -93 -41 -61 -15 21
-28 27 -58 27 -22 0 -45 -7 -54 -16 -43 -42 3 -179 91 -270 38 -39 63 -55 111
-70 l62 -19 0 -92 c0 -51 -7 -127 -16 -170 -9 -43 -18 -88 -20 -101 -6 -32
-20 -19 -29 25 -4 21 -25 73 -47 116 -34 66 -49 84 -95 113 -29 19 -57 34 -62
34 -18 0 -31 -56 -31 -135 0 -78 3 -88 42 -165 27 -53 63 -103 101 -142 l60
-59 -6 -52 c-3 -29 -15 -70 -26 -92 -12 -21 -21 -45 -21 -52 0 -22 -61 -143
-72 -143 -6 0 -8 21 -3 58 9 83 -14 158 -84 272 -53 87 -91 54 -112 -96 -19
-133 4 -246 70 -355 17 -27 31 -55 31 -63 0 -7 -18 -40 -40 -72 -42 -61 -47
-78 -29 -89 15 -10 47 23 81 82 l29 51 62 6 c200 21 323 91 391 223 23 45 20
59 -14 73 -59 24 -164 -3 -256 -66 -36 -25 -68 -43 -71 -40 -7 6 6 39 68 173
l47 102 52 15 c63 19 149 67 187 105 99 99 163 253 120 289 -15 13 -63 3 -127
-27 -58 -27 -77 -43 -135 -116 -61 -76 -59 -75 -51 -42 18 75 37 288 31 353
-7 73 2 94 42 100 27 4 90 74 119 132 26 51 29 66 27 145 -2 108 -21 147 -69
147 -24 0 -40 -9 -63 -35 l-31 -36 -31 51 c-41 67 -82 88 -108 56z m79 -86
c16 -16 30 -34 30 -40 0 -6 7 -27 16 -48 l16 -37 23 51 c22 49 23 50 59 46 20
-2 36 -9 36 -16 0 -31 -20 -178 -25 -186 -3 -5 -15 0 -26 11 -11 11 -17 24
-14 29 9 14 -10 12 -49 -4 -18 -7 -43 -27 -54 -44 -20 -27 -48 -40 -106 -47
-19 -2 -102 74 -104 97 -1 7 -7 37 -13 66 -7 32 -8 57 -3 62 14 14 73 -25 84
-55 10 -26 38 -33 57 -14 7 7 8 22 1 46 -12 43 -6 50 28 34 24 -10 26 -10 19
6 -11 29 -18 73 -12 73 4 0 20 -13 37 -30z m-175 -596 c14 -9 25 -23 25 -31 0
-8 11 -24 24 -36 15 -14 26 -38 29 -62 18 -149 19 -165 10 -165 -28 0 -45 41
-49 115 -4 86 -7 95 -36 95 -14 0 -18 -5 -14 -16 3 -8 -1 -22 -10 -31 -13 -14
-14 -13 -8 11 5 19 2 26 -9 26 -17 0 -28 71 -14 95 10 19 22 19 52 -1z m455
-127 c0 -29 -20 -57 -42 -61 -22 -3 -58 -36 -58 -53 0 -7 -4 -13 -10 -13 -5 0
-10 -6 -10 -14 0 -7 -14 -16 -31 -20 -47 -9 -59 -7 -59 9 0 21 -20 19 -21 -2
0 -13 -2 -14 -6 -4 -5 11 -7 11 -14 0 -7 -12 -9 -11 -9 1 0 18 49 80 50 63 0
-8 9 -11 23 -9 12 3 25 5 30 5 4 1 7 6 7 12 0 5 -5 7 -11 3 -7 -4 -10 -1 -7 7
3 8 11 13 17 12 6 -2 11 1 11 6 0 5 18 17 40 27 22 10 40 22 40 26 0 8 35 26
53 27 4 1 7 -9 7 -22z m-469 -40 c-10 -9 -11 -8 -5 6 3 10 9 15 12 12 3 -3 0
-11 -7 -18z m425 -83 c-19 -18 -21 -11 -4 19 7 14 13 17 15 10 3 -7 -3 -20
-11 -29z m-544 -201 c35 -77 42 -103 28 -103 -6 0 -9 4 -5 9 3 5 1 12 -5 16
-5 3 -10 1 -10 -4 0 -6 -7 -11 -15 -11 -8 0 -14 -5 -12 -11 1 -6 -4 -14 -10
-16 -10 -4 -13 18 -13 86 0 50 4 91 8 91 5 0 20 -26 34 -57z m56 -157 c2 -42
-12 -54 -35 -30 -15 15 -15 18 -1 28 15 11 18 17 18 37 0 5 4 8 8 5 5 -3 9
-21 10 -40z m-78 -7 c0 -5 -4 -9 -10 -9 -5 0 -10 7 -10 16 0 8 5 12 10 9 6 -3
10 -10 10 -16z m3 -35 c-4 -10 0 -20 10 -26 13 -7 14 -13 5 -33 -9 -19 -14
-22 -25 -14 -19 16 -17 89 2 89 9 0 12 -6 8 -16z m470 -8 c18 -14 18 -16 1
-40 -18 -28 -38 -28 -79 0 -11 8 -33 14 -50 14 -26 1 -28 2 -12 11 10 6 40 14
65 19 26 4 49 8 52 9 3 0 13 -6 23 -13z m-398 -53 c-3 -27 -11 -61 -17 -76 -9
-24 -13 -26 -20 -13 -5 9 -5 23 2 35 5 11 10 29 10 40 0 19 19 61 28 61 1 0 0
-21 -3 -47z m243 -15 c-20 -19 -85 -48 -92 -40 -9 8 64 52 87 52 15 0 16 -2 5
-12z m-311 -40 c-3 -8 -6 -5 -6 6 -1 11 2 17 5 13 3 -3 4 -12 1 -19z"/>
<path d="M9926 6317 c3 -10 9 -15 12 -12 3 3 0 11 -7 18 -10 9 -11 8 -5 -6z"/>
<path d="M9780 6194 c0 -8 9 -14 19 -14 10 0 21 -7 25 -15 4 -13 9 -12 36 3
45 26 35 46 -11 22 -11 -6 -19 -7 -19 -2 0 6 -11 12 -25 14 -17 4 -25 1 -25
-8z"/>
<path d="M6572 5921 c-11 -7 -10 -10 3 -15 19 -7 35 0 35 15 0 11 -20 12 -38
0z"/>
<path d="M6370 5815 c0 -38 18 -47 40 -20 7 8 19 15 26 15 8 0 14 5 14 11 0 6
-8 9 -18 7 -10 -3 -23 1 -30 9 -21 22 -32 15 -32 -22z"/>
<path d="M5360 5730 c0 -6 -4 -8 -10 -5 -5 3 -10 1 -10 -4 0 -6 9 -11 20 -11
21 0 27 15 10 25 -5 3 -10 1 -10 -5z"/>
<path d="M5444 5693 c3 -29 17 -39 42 -29 13 5 13 9 -2 31 -22 34 -43 33 -40
-2z"/>
<path d="M4659 5481 c-19 -16 -52 -37 -74 -47 -41 -20 -53 -46 -23 -52 9 -2
25 6 35 17 9 12 27 21 38 21 14 0 29 13 44 41 13 22 21 42 19 44 -2 3 -20 -8
-39 -24z"/>
<path d="M4720 5210 c0 -16 5 -30 10 -30 6 0 10 14 10 30 0 17 -4 30 -10 30
-5 0 -10 -13 -10 -30z"/>
<path d="M4895 5140 c-17 -19 -17 -20 0 -26 19 -8 49 22 39 37 -8 14 -19 11
-39 -11z"/>
<path d="M4530 5142 c0 -18 28 -45 39 -38 9 6 8 13 -5 27 -18 20 -34 25 -34
11z"/>
<path d="M4738 5083 c6 -2 18 -2 25 0 6 3 1 5 -13 5 -14 0 -19 -2 -12 -5z"/>
<path d="M4825 5050 c3 -5 8 -10 11 -10 2 0 4 5 4 10 0 6 -5 10 -11 10 -5 0
-7 -4 -4 -10z"/>
<path d="M4800 5025 c0 -15 4 -24 10 -20 6 3 10 12 10 20 0 8 -4 17 -10 20 -6
4 -10 -5 -10 -20z"/>
<path d="M4478 4973 c-10 -3 -18 -8 -18 -13 0 -16 17 -19 35 -6 20 14 10 25
-17 19z"/>
<path d="M4940 4970 c0 -5 16 -10 35 -10 19 0 35 5 35 10 0 6 -16 10 -35 10
-19 0 -35 -4 -35 -10z"/>
<path d="M9167 4923 c-4 -3 -7 -11 -7 -17 0 -6 5 -5 12 2 6 6 9 14 7 17 -3 3
-9 2 -12 -2z"/>
<path d="M8710 4863 c-38 -27 -57 -48 -69 -79 l-11 -29 4 28 c4 33 1 34 -20 2
-18 -27 -26 -75 -13 -75 5 0 9 -22 9 -48 0 -27 6 -57 15 -68 8 -10 15 -28 15
-39 0 -23 -32 -105 -42 -105 -3 0 -11 17 -18 38 -6 20 -16 53 -22 73 -14 50
-69 77 -103 52 -17 -12 -20 -26 -20 -107 0 -90 1 -96 33 -139 17 -25 32 -50
32 -56 0 -6 3 -11 8 -11 34 0 38 -129 3 -131 -10 0 -11 -2 -3 -6 16 -6 15 -36
-8 -168 -10 -60 -16 -112 -14 -114 3 -3 16 7 31 21 22 22 28 42 40 130 14 102
30 144 59 155 23 9 27 -1 25 -74 l-1 -68 22 30 c13 16 40 48 61 71 24 27 37
51 37 70 0 22 3 26 10 14 5 -8 10 -10 10 -4 0 7 -8 22 -18 34 -15 19 -24 21
-65 15 -25 -4 -56 -16 -68 -26 -24 -21 -42 -16 -35 9 3 10 10 36 16 60 11 42
11 42 57 42 25 0 64 9 87 19 23 11 58 26 78 35 20 9 40 25 43 36 4 11 12 20
19 20 8 0 19 7 26 15 7 8 20 14 29 13 11 -2 16 5 16 27 1 17 4 41 9 55 5 19 5
21 -3 10 -9 -13 -11 -13 -11 3 0 21 -26 23 -34 2 -4 -11 -22 -15 -71 -15 -73
0 -111 -15 -164 -64 -27 -25 -31 -27 -22 -8 7 12 31 46 55 75 50 61 69 124 64
213 -4 82 -27 102 -78 67z m40 -85 c0 -41 -31 -121 -63 -163 -13 -16 -17 -17
-31 -6 -22 18 -20 52 6 109 50 108 88 134 88 60z m-133 -40 c-3 -8 -6 -5 -6 6
-1 11 2 17 5 13 3 -3 4 -12 1 -19z m-120 -160 c22 -28 73 -169 73 -200 0 -46
-15 -68 -25 -37 -4 13 -21 36 -38 52 -29 26 -31 34 -35 113 -4 82 2 101 25 72z
m433 -22 c0 -3 -4 -8 -10 -11 -5 -3 -10 -1 -10 4 0 6 5 11 10 11 6 0 10 -2 10
-4z m-90 -34 c0 -25 -56 -77 -110 -101 -46 -21 -90 -27 -90 -13 0 22 84 92
132 111 66 25 68 25 68 3z m-200 -312 c0 -5 -5 -10 -11 -10 -5 0 -7 5 -4 10 3
6 8 10 11 10 2 0 4 -4 4 -10z m94 -40 c-5 -5 -16 -1 -24 8 -13 14 -12 15 3 9
10 -4 17 -2 18 6 0 8 2 8 6 -1 3 -8 1 -17 -3 -22z"/>
<path d="M4536 4794 c-4 -9 -4 -19 -1 -22 7 -8 35 19 29 29 -8 14 -21 11 -28
-7z"/>
<path d="M4890 4800 c0 -5 7 -10 15 -10 8 0 15 -7 15 -15 0 -8 5 -15 10 -15
16 0 12 15 -8 33 -21 19 -32 22 -32 7z"/>
<path d="M3767 4793 c-10 -10 -8 -58 4 -90 15 -40 27 -12 21 50 -4 45 -10 55
-25 40z"/>
<path d="M4722 4715 c0 -16 2 -22 5 -12 2 9 2 23 0 30 -3 6 -5 -1 -5 -18z"/>
<path d="M3430 4640 c-8 -5 -11 -12 -8 -16 4 -3 14 1 23 10 18 17 9 21 -15 6z"/>
<path d="M9324 4592 c-6 -4 -15 -17 -19 -30 -8 -26 12 -60 97 -170 27 -35 48
-67 46 -71 -2 -4 -37 0 -78 10 -110 27 -187 34 -205 19 -18 -15 -20 -64 -2
-77 6 -6 48 -15 92 -22 222 -31 273 -43 286 -68 10 -19 10 -31 0 -58 -9 -25
-9 -40 -1 -55 11 -20 45 -26 66 -12 35 23 45 113 19 175 -20 49 -222 339 -250
359 -5 4 -17 8 -25 8 -8 0 -20 -4 -26 -8z"/>
<path d="M3368 4543 c7 -3 16 -2 19 1 4 3 -2 6 -13 5 -11 0 -14 -3 -6 -6z"/>
<path d="M2620 4505 c0 -16 5 -37 10 -45 7 -12 10 -8 10 15 0 17 -5 37 -10 45
-7 12 -10 8 -10 -15z"/>
<path d="M2205 4395 c-312 -198 -315 -201 -315 -238 0 -24 130 -196 160 -212
16 -8 50 -15 75 -15 82 0 131 41 137 115 l3 38 62 1 c72 1 106 25 124 87 17
54 2 95 -79 217 -46 67 -70 69 -167 7z m129 -119 c24 -39 28 -52 20 -74 -12
-35 -65 -43 -96 -15 -21 19 -48 65 -48 82 0 13 72 62 85 58 5 -2 23 -25 39
-51z m-185 -92 c12 -15 26 -44 33 -65 10 -36 9 -41 -12 -64 -31 -33 -70 -32
-102 3 -30 32 -58 73 -58 84 0 10 91 68 107 68 6 0 21 -12 32 -26z"/>
<path d="M8351 4422 c0 -8 -10 -25 -21 -39 -27 -35 -25 -43 9 -43 30 0 42 15
47 58 2 19 0 21 -11 12 -10 -9 -14 -7 -18 7 -3 10 -5 12 -6 5z"/>
<path d="M8857 4394 c-14 -14 -7 -35 11 -32 9 2 17 10 17 17 0 16 -18 25 -28
15z"/>
<path d="M2740 4380 c0 -5 5 -10 10 -10 6 0 10 5 10 10 0 6 -4 10 -10 10 -5 0
-10 -4 -10 -10z"/>
<path d="M2920 4370 c0 -5 5 -10 11 -10 5 0 7 5 4 10 -3 6 -8 10 -11 10 -2 0
-4 -4 -4 -10z"/>
<path d="M2750 4339 c0 -5 5 -7 10 -4 6 3 10 8 10 11 0 2 -4 4 -10 4 -5 0 -10
-5 -10 -11z"/>
<path d="M2760 4273 c0 -14 19 -38 25 -32 8 8 -5 39 -16 39 -5 0 -9 -3 -9 -7z"/>
<path d="M8480 4260 c0 -6 7 -10 15 -10 8 0 15 2 15 4 0 2 -7 6 -15 10 -8 3
-15 1 -15 -4z"/>
<path d="M3167 4243 c-3 -5 6 -8 19 -8 13 0 24 3 24 8 0 4 -9 7 -19 7 -11 0
-22 -3 -24 -7z"/>
<path d="M9082 4212 c-22 -14 -162 -206 -162 -222 0 -22 9 -33 60 -75 53 -44
143 -129 185 -174 22 -24 31 -44 35 -84 5 -51 6 -53 69 -95 35 -24 71 -42 80
-40 8 2 22 16 31 31 15 28 14 29 -24 62 l-38 34 23 33 c12 18 34 47 48 65 14
17 42 52 61 77 19 25 39 46 43 46 5 0 20 -9 34 -20 37 -29 81 -27 93 6 13 34
1 54 -59 98 -47 35 -93 46 -106 26 -6 -9 -197 130 -293 212 -33 28 -57 34 -80
20z m161 -217 c70 -53 127 -101 127 -109 0 -16 -78 -116 -90 -116 -5 0 -18 12
-29 28 -21 29 -75 83 -160 159 l-54 49 29 42 c16 23 34 41 40 42 6 0 68 -43
137 -95z"/>
<path d="M8476 4175 c-3 -8 -1 -15 4 -15 6 0 10 7 10 15 0 8 -2 15 -4 15 -2 0
-6 -7 -10 -15z"/>
<path d="M2607 3880 c-51 -15 -184 -129 -238 -204 -54 -74 -29 -187 56 -254
56 -44 145 -47 145 -5 0 28 -12 41 -52 57 -73 31 -98 99 -57 157 35 49 179
159 208 159 48 0 101 -57 101 -109 0 -25 41 -54 64 -45 27 10 35 44 21 92 -19
63 -61 111 -119 138 -53 25 -82 28 -129 14z"/>
<path d="M8075 3850 c-3 -6 1 -13 10 -17 10 -3 20 -1 24 5 3 5 17 12 31 15 17
3 11 5 -17 6 -23 0 -45 -4 -48 -9z"/>
<path d="M8687 3742 c-21 -23 -22 -68 -1 -107 9 -16 57 -109 106 -205 50 -96
95 -181 101 -188 6 -7 24 -12 41 -10 45 4 56 43 27 98 -21 41 -21 42 -2 68 11
15 35 42 55 61 l35 34 54 -18 c61 -21 82 -16 98 19 16 34 5 54 -38 73 -21 8
-122 55 -225 104 -103 49 -198 89 -211 89 -13 0 -31 -8 -40 -18z m161 -135
c20 -12 54 -31 75 -42 20 -11 37 -24 37 -29 0 -14 -52 -66 -65 -66 -6 0 -18
12 -25 28 -8 15 -24 41 -35 57 -56 77 -52 92 13 52z"/>
<path d="M3515 3740 c-3 -6 1 -7 9 -4 18 7 21 14 7 14 -6 0 -13 -4 -16 -10z"/>
<path d="M7857 3694 c-12 -13 -8 -72 14 -172 11 -53 23 -104 26 -112 3 -8 5
-18 5 -22 -3 -12 23 -9 36 4 16 16 15 53 -1 67 -17 14 -33 66 -47 156 -11 70
-20 91 -33 79z"/>
<path d="M2772 3483 c-162 -166 -189 -201 -173 -231 5 -10 50 -55 100 -101 75
-68 96 -82 118 -79 23 2 29 9 31 33 2 25 -7 40 -63 95 -36 35 -65 68 -65 73 0
5 18 27 40 49 l40 40 62 -56 c61 -55 93 -67 116 -44 25 25 13 56 -43 105 -30
26 -55 56 -55 67 0 10 16 34 35 53 l36 36 68 -66 c70 -68 93 -76 122 -41 19
23 -4 59 -83 133 -69 65 -103 90 -123 91 -5 0 -79 -71 -163 -157z"/>
<path d="M8071 3574 c-12 -15 -21 -32 -21 -39 0 -7 -10 -24 -21 -39 -40 -51 2
-43 53 11 28 29 41 83 22 90 -7 2 -21 -8 -33 -23z"/>
<path d="M8464 3516 c-55 -24 -112 -83 -129 -136 -26 -77 -8 -122 98 -248 76
-91 111 -117 168 -127 80 -14 194 67 220 155 16 51 4 75 -37 75 -24 0 -32 -7
-50 -45 -29 -60 -57 -84 -99 -84 -40 0 -79 33 -152 128 -60 78 -67 125 -28
166 16 17 44 33 64 36 47 9 61 21 61 54 0 42 -53 53 -116 26z"/>
<path d="M7690 3415 c0 -3 18 -16 39 -31 26 -17 42 -36 46 -55 7 -31 25 -38
44 -15 28 34 -37 106 -95 106 -19 0 -34 -2 -34 -5z"/>
<path d="M3202 3392 c-14 -4 -278 -353 -294 -387 -20 -43 28 -88 70 -66 11 6
40 41 65 78 61 90 94 129 101 122 3 -3 0 -44 -6 -91 -13 -97 -9 -114 27 -128
23 -9 39 -3 111 35 46 25 84 40 84 34 0 -7 -24 -44 -53 -83 -96 -130 -103
-148 -67 -181 44 -40 60 -23 303 334 21 29 37 59 37 65 0 16 -42 56 -60 56
-11 0 -62 -26 -230 -116 -39 -22 -61 -18 -56 9 3 12 15 80 26 150 20 119 20
130 5 147 -18 20 -43 29 -63 22z"/>
<path d="M4971 3243 c-8 -14 -13 -15 -35 -5 -23 10 -29 9 -47 -9 -16 -16 -19
-27 -13 -52 15 -71 44 -110 94 -128 21 -8 26 -16 27 -49 1 -22 -1 -40 -4 -40
-3 0 -23 16 -44 35 -50 44 -99 49 -99 10 0 -50 35 -99 92 -128 57 -29 105 -34
159 -16 49 17 65 34 84 91 14 45 15 53 2 65 -24 24 -72 7 -111 -39 l-35 -40 4
53 c2 33 8 55 17 58 7 2 30 21 52 43 36 38 38 42 33 91 -6 65 -26 82 -73 62
-28 -11 -35 -11 -51 1 -24 18 -40 17 -52 -3z m89 -61 l30 17 0 -34 c0 -47 -29
-75 -77 -75 -45 1 -68 16 -83 54 -14 39 -14 64 2 48 17 -17 48 -15 55 4 5 14
9 13 24 -7 18 -23 19 -24 49 -7z m-117 -217 c33 -31 37 -54 5 -33 -25 17 -55
58 -42 58 5 0 22 -11 37 -25z m167 -13 c0 -10 -22 -32 -32 -32 -5 0 -3 9 4 20
13 20 28 27 28 12z"/>
<path d="M5316 3232 c-2 -4 -1 -14 5 -22 5 -8 9 -24 9 -36 0 -24 25 -62 35
-52 8 8 -22 105 -35 113 -5 3 -11 2 -14 -3z"/>
<path d="M6464 3209 c-18 -18 -24 -19 -48 -8 -32 15 -39 8 -56 -50 -8 -30 -6
-39 16 -69 14 -18 41 -41 60 -49 27 -13 34 -23 34 -44 0 -39 -19 -46 -44 -16
-23 28 -75 57 -102 57 -14 0 -16 -8 -11 -46 7 -67 50 -116 113 -130 61 -13
126 -2 164 28 30 24 60 84 60 119 0 18 -4 20 -32 14 -40 -9 -84 -39 -100 -68
-11 -22 -12 -22 -19 6 -9 35 5 77 25 77 48 0 96 53 96 107 0 39 -14 57 -39 50
-12 -3 -24 0 -29 7 -7 14 -45 36 -59 36 -5 0 -18 -9 -29 -21z m51 -40 c0 -7
-8 -15 -17 -17 -18 -3 -25 18 -11 32 10 10 28 1 28 -15z m65 -30 c0 -21 -58
-69 -84 -69 -38 0 -76 21 -76 41 0 15 8 18 44 17 24 0 52 4 62 10 25 15 54 15
54 1z m-170 -194 c13 -14 20 -28 17 -32 -8 -7 -57 35 -57 49 0 15 16 8 40 -17z
m180 16 c0 -5 -11 -16 -25 -25 -29 -19 -33 -11 -8 16 17 19 33 24 33 9z"/>
<path d="M5417 3203 c-3 -5 -8 -23 -12 -40 -5 -26 -3 -33 9 -33 9 0 16 8 16
18 0 9 3 27 6 40 6 20 -9 32 -19 15z"/>
<path d="M6740 3181 c-15 -28 -12 -51 5 -51 8 0 15 -7 15 -15 0 -17 26 -20 36
-4 3 6 1 16 -5 22 -6 6 -11 24 -11 39 0 33 -24 38 -40 9z"/>
<path d="M6823 3188 c-20 -26 -22 -57 -3 -63 32 -10 51 5 48 39 -3 33 -28 46
-45 24z"/>
<path d="M7974 3135 c-15 -23 -15 -41 -6 -168 6 -78 7 -145 3 -150 -7 -7 -27
4 -179 105 -41 26 -81 48 -91 48 -26 0 -61 -29 -61 -51 0 -18 152 -301 216
-401 30 -46 65 -51 90 -12 16 24 16 28 -12 86 -16 34 -44 82 -61 107 -34 47
-43 77 -20 68 6 -3 45 -25 85 -50 71 -44 102 -50 120 -23 4 6 9 58 12 116 l5
105 63 -107 c35 -59 70 -112 78 -119 24 -20 68 1 72 33 3 29 -40 122 -98 208
-20 30 -53 87 -74 125 -21 39 -45 78 -54 88 -23 26 -68 22 -88 -8z"/>
<path d="M5550 3130 c0 -5 5 -10 10 -10 6 0 10 5 10 10 0 6 -4 10 -10 10 -5 0
-10 -4 -10 -10z"/>
<path d="M6053 3129 c-13 -13 0 -44 27 -66 22 -18 30 -16 30 7 0 24 4 25 36 4
13 -9 26 -15 27 -13 26 36 34 58 27 69 -7 11 -11 11 -24 1 -22 -18 -64 -21
-77 -5 -14 17 -31 18 -46 3z"/>
<path d="M5660 3120 c0 -5 5 -10 10 -10 6 0 10 -18 10 -40 0 -32 -7 -47 -35
-76 -50 -52 -36 -54 23 -4 45 37 49 44 42 69 -14 49 -50 93 -50 61z"/>
<path d="M5532 3074 c-18 -15 -32 -32 -32 -39 0 -20 40 -55 63 -55 20 1 21 2
5 14 -27 20 -22 25 20 19 l37 -5 -29 24 c-22 19 -27 29 -22 46 10 29 -3 28
-42 -4z"/>
<path d="M3648 3068 c-8 -7 -31 -42 -51 -78 -19 -36 -62 -114 -96 -174 -86
-154 -91 -169 -62 -200 13 -14 56 -41 95 -60 128 -64 224 -45 274 54 49 98 14
174 -116 251 l-32 19 35 71 c39 77 39 104 -2 120 -30 11 -26 11 -45 -3z m33
-303 c20 -13 39 -35 41 -48 10 -50 -29 -107 -71 -107 -29 0 -111 40 -111 54 0
5 15 35 32 67 37 67 53 73 109 34z"/>
<path d="M5335 2950 c-3 -6 -3 -24 0 -41 6 -28 10 -31 36 -25 17 3 29 1 29 -5
0 -24 25 0 31 28 9 45 -4 62 -30 39 -20 -18 -22 -18 -40 -2 -13 12 -21 14 -26
6z"/>
<path d="M5956 2909 c-11 -58 -8 -79 14 -79 27 0 35 24 24 68 -12 46 -30 51
-38 11z"/>
<path d="M6042 2898 c-17 -17 -16 -78 1 -78 16 0 50 67 42 81 -8 13 -29 11
-43 -3z"/>
<path d="M5864 2886 c-3 -8 5 -30 18 -48 12 -18 24 -35 26 -37 1 -3 7 0 12 5
13 13 -14 88 -34 92 -9 2 -19 -3 -22 -12z"/>
<path d="M4027 2865 c-9 -6 -30 -43 -47 -81 -98 -216 -150 -347 -145 -362 7
-24 55 -52 162 -96 75 -30 96 -35 112 -26 21 11 28 46 13 65 -10 15 -45 33
-107 56 -30 11 -57 24 -60 29 -10 16 36 110 54 110 9 0 36 -10 61 -21 93 -43
130 -42 130 6 0 25 -29 50 -85 74 -16 7 -40 19 -52 27 l-22 14 21 50 c11 27
24 50 29 50 4 0 44 -14 89 -32 91 -36 115 -32 115 18 0 27 -7 32 -105 76 -121
54 -141 59 -163 43z"/>
<path d="M7406 2834 c-95 -34 -154 -117 -143 -199 7 -50 67 -195 102 -244 37
-54 79 -75 150 -74 72 1 118 19 163 66 38 39 56 100 46 155 -7 38 -92 224
-116 253 -45 55 -124 72 -202 43z m117 -102 c20 -22 95 -189 103 -231 13 -63
-82 -115 -147 -81 -34 19 -122 221 -112 259 6 23 25 46 48 59 31 18 90 15 108
-6z"/>
<path d="M7134 2720 c-14 -6 -29 -31 -47 -77 -14 -37 -35 -94 -47 -126 -12
-32 -27 -56 -32 -55 -6 2 -23 42 -37 88 -15 46 -34 88 -43 94 -20 12 -65 -6
-74 -29 -3 -8 13 -79 36 -157 100 -339 96 -332 146 -326 44 5 51 29 31 100
-25 86 -31 128 -19 128 6 0 55 -34 109 -75 99 -74 135 -89 161 -63 19 19 14
53 -10 75 -13 11 -58 44 -102 73 -43 30 -80 59 -83 66 -4 11 8 51 57 188 12
32 19 65 16 72 -8 20 -39 32 -62 24z"/>
<path d="M4578 2670 c-18 -11 -30 -48 -82 -252 -19 -73 -39 -146 -45 -161 -14
-37 -14 -80 1 -95 20 -20 73 -14 99 11 13 13 68 69 123 126 54 56 100 100 103
98 6 -7 -16 -120 -39 -200 -23 -79 -18 -114 17 -123 52 -13 49 -19 121 246 53
192 61 247 43 264 -8 8 -24 17 -37 21 -20 6 -41 -11 -153 -121 -71 -70 -131
-125 -135 -122 -3 4 8 58 25 122 37 138 38 160 9 180 -26 18 -27 19 -50 6z"/>
<path d="M6631 2589 c-92 -18 -151 -89 -151 -181 0 -72 27 -197 55 -255 32
-64 83 -93 166 -93 62 0 151 36 168 69 18 33 13 61 -14 73 -22 10 -30 8 -53
-10 -50 -40 -93 -54 -125 -41 -38 16 -52 40 -70 124 -37 164 -32 198 33 225
26 11 41 11 82 0 47 -11 52 -11 71 8 19 19 19 22 5 44 -9 14 -34 30 -56 36
-44 13 -49 13 -111 1z"/>
<path d="M6211 2524 c-130 -14 -151 -23 -151 -58 0 -35 20 -46 81 -46 l56 0
11 -117 c6 -65 14 -155 18 -201 4 -51 12 -89 21 -98 20 -20 57 -18 77 4 15 17
15 30 2 153 -8 74 -17 166 -21 205 l-6 71 52 6 c28 4 57 12 65 18 20 17 17 57
-5 69 -23 12 -37 11 -200 -6z"/>
<path d="M5296 2509 c-9 -13 -16 -35 -16 -50 0 -14 -11 -86 -25 -160 -25 -136
-42 -175 -83 -194 -24 -11 -42 -70 -42 -137 0 -51 13 -68 52 -68 31 0 42 16
52 73 7 36 9 37 39 33 18 -3 70 -8 117 -11 131 -10 130 -9 130 -66 0 -38 4
-51 20 -59 25 -14 57 -5 70 19 5 10 10 49 12 86 2 61 0 70 -20 83 -26 17 -28
61 -12 227 16 158 15 197 -4 211 -10 6 -54 15 -99 18 -45 4 -103 9 -128 12
-41 5 -49 3 -63 -17z m197 -86 c6 -13 -17 -331 -25 -338 -3 -4 -41 -4 -83 0
-65 6 -76 10 -71 24 29 87 47 168 52 226 3 39 7 76 10 83 4 13 110 18 117 5z"/>
<path d="M5724 2486 c-18 -14 -19 -26 -16 -248 3 -187 6 -236 18 -248 11 -11
45 -16 140 -18 108 -3 128 -1 145 14 10 9 19 25 19 34 0 33 -28 43 -123 44
l-92 1 -3 62 c-3 58 -1 63 20 67 13 3 32 4 43 4 73 -5 115 3 125 23 9 16 8 26
-5 45 -15 23 -22 25 -88 24 -40 -1 -78 -1 -84 -1 -9 1 -13 20 -13 61 l0 60 83
0 c111 0 156 30 109 73 -25 23 -248 25 -278 3z"/>
</g>
</svg>
